<svg width="142" height="149" viewBox="0 0 142 149" fill="none" xmlns="http://www.w3.org/2000/svg">
<path d="M59.9993 108.566C45.9633 94.7198 36.7629 80.4209 32.5151 65.7963C28.2192 51.246 29.181 35.6513 35.2319 21.7463C37.8331 15.5623 41.4028 9.83272 45.8068 4.7729C46.066 4.50033 46.5674 4.55838 46.9209 4.90712C47.2745 5.25585 47.3582 5.75333 47.0991 6.0259C42.7719 11.0048 39.266 16.642 36.7134 22.7254C30.8023 36.3158 29.86 51.5557 34.0514 65.7778C41.2012 90.378 62.7984 114.124 98.2436 136.359C98.4365 136.464 98.588 136.631 98.6735 136.833C98.759 137.035 98.7735 137.261 98.7144 137.472C98.5603 137.827 98.0999 137.904 97.6863 137.645C82.6595 128.221 70.0972 118.528 59.9993 108.566Z" fill="#63AE25"/>
<path d="M103.489 139.711L93.81 138.757L97.4149 136.503L97.2407 132.254L103.489 139.711Z" fill="#63AE25"/>
</svg>
