<svg width="18" height="18" viewBox="0 0 18 18" fill="none" xmlns="http://www.w3.org/2000/svg">
<g clip-path="url(#clip0)">
<path d="M4.14119 6.12932C4.00408 5.99221 3.78119 5.99221 3.64411 6.12932C3.50665 6.26678 3.50665 6.48932 3.64411 6.62643C3.78122 6.76389 4.00411 6.76389 4.14119 6.62643C4.27861 6.48932 4.27861 6.26678 4.14119 6.12932Z" fill="#333333"/>
<path d="M8.90154 15.7401C9.05655 15.5301 9.14033 15.2772 9.14033 15.0112C9.14033 14.3328 8.58837 13.7808 7.90989 13.7808H1.93353C1.60471 13.7808 1.29572 13.9087 1.06344 14.1411C0.83106 14.3734 0.703091 14.6824 0.703091 15.0112C0.703091 15.2836 0.792248 15.5356 0.942681 15.7396C0.382887 16.034 0 16.6211 0 17.2963V17.6478C0 17.842 0.15743 17.9994 0.351563 17.9994H9.49185C9.68599 17.9994 9.84342 17.842 9.84342 17.6478V17.2963C9.84342 16.6214 9.46092 16.0345 8.90154 15.7401ZM1.56059 14.6382C1.66012 14.5386 1.79259 14.4838 1.93353 14.4838H7.90989C8.20067 14.4838 8.4372 14.7204 8.4372 15.0111C8.4372 15.1521 8.38236 15.2845 8.28279 15.3841C8.18327 15.4837 8.0508 15.5385 7.90985 15.5385H1.93353C1.64275 15.5385 1.40622 15.3019 1.40622 15.0112C1.40622 14.8702 1.46103 14.7378 1.56059 14.6382ZM0.703091 17.2963C0.703091 16.7147 1.17622 16.2416 1.75775 16.2416H1.93353H7.90989H8.08567C8.66719 16.2416 9.14033 16.7147 9.14033 17.2963H0.703091Z" fill="#333333"/>
<path d="M17.6731 14.7701C17.5537 14.5851 17.4112 14.4215 17.2496 14.2838L15.6069 12.8511C15.5941 12.8318 15.5793 12.8135 15.5623 12.7965C15.5338 12.768 15.5014 12.7458 15.467 12.7291L14.4736 11.8627L9.87553 7.85165C10.0638 7.65488 10.1674 7.39757 10.1674 7.12395C10.1674 6.84207 10.0577 6.57716 9.85824 6.37776C9.77126 6.29089 9.6724 6.22258 9.56676 6.17255L9.99214 5.74716C10.111 5.77877 10.2332 5.79494 10.3555 5.79494C10.7155 5.7949 11.0756 5.65786 11.3497 5.38378C11.6154 5.11811 11.7617 4.76496 11.7617 4.38939C11.7617 4.01381 11.6154 3.66067 11.3497 3.39499L8.36677 0.412119C8.10109 0.146443 7.74791 0.00012207 7.37223 0.00012207C6.99673 0.00012207 6.64365 0.146443 6.37801 0.412119C6.01084 0.779291 5.88997 1.30062 6.01463 1.76968L1.77039 6.01389C1.65311 5.98271 1.53108 5.96625 1.40642 5.96625C1.03067 5.96625 0.677665 6.11247 0.4122 6.3779C-0.136098 6.9262 -0.136098 7.81836 0.4122 8.36669L3.3951 11.3496C3.66929 11.6238 4.02939 11.7609 4.3895 11.7609C4.74964 11.7609 5.10975 11.6238 5.38393 11.3496C5.7511 10.9824 5.87197 10.4611 5.74731 9.99207L6.17182 9.56753C6.22283 9.67405 6.29205 9.77235 6.37804 9.8583C6.57724 10.0575 6.84207 10.1672 7.12389 10.1672C7.39723 10.1672 7.65443 10.0638 7.85148 9.87574L12.749 15.5026C12.7625 15.5237 12.7782 15.5438 12.7966 15.5622C12.8029 15.5685 12.8096 15.5743 12.8162 15.58L14.2756 17.2567C14.3119 17.2995 14.3507 17.3416 14.3909 17.3819C14.7918 17.7826 15.3212 18 15.877 18C15.975 18 16.0739 17.9933 16.1729 17.9796C16.8349 17.8879 17.407 17.4919 17.7424 16.8929C18.1099 16.2365 18.0826 15.403 17.6731 14.7701ZM6.87522 0.909299C7.00808 0.776444 7.18463 0.703248 7.37226 0.703248C7.56014 0.703248 7.7368 0.776444 7.86962 0.909299L10.8526 3.89221C10.9854 4.02506 11.0586 4.20165 11.0586 4.38942C11.0586 4.57719 10.9854 4.75378 10.8525 4.88664C10.5785 5.16075 10.1325 5.16075 9.85845 4.88664L6.8754 1.90359C6.87533 1.90352 6.87529 1.90348 6.87522 1.90341C6.60111 1.62934 6.60111 1.18338 6.87522 0.909299ZM4.88675 10.8525C4.6126 11.1266 4.16643 11.1266 3.89228 10.8525L0.90938 7.86955C0.635196 7.59536 0.635196 7.1493 0.90938 6.87508C1.04199 6.74243 1.21854 6.66938 1.40642 6.66938C1.59426 6.66938 1.77071 6.7424 1.90328 6.87494L4.88671 9.85837C5.16086 10.1324 5.16086 10.5784 4.88675 10.8525ZM6.3669 8.37815L5.38389 9.36119L2.40067 6.37797L6.37801 2.40056L9.3612 5.38378L8.3764 6.36862C8.3732 6.37164 8.37007 6.37459 8.36669 6.37793L6.37903 8.36564C6.37492 8.36968 6.37094 8.3739 6.3669 8.37815ZM7.62219 9.11155C7.62149 9.11225 7.62082 9.11292 7.62012 9.11362L7.37255 9.36119C7.30614 9.42757 7.21786 9.46413 7.12385 9.46413C7.02988 9.46413 6.94156 9.42757 6.87519 9.36116C6.80871 9.29471 6.77211 9.20633 6.77211 9.11229C6.77211 9.02025 6.80723 8.93366 6.87097 8.86834L8.86788 6.87142C9.00475 6.73832 9.22602 6.73997 9.36127 6.87508C9.42771 6.94152 9.46431 7.02991 9.46431 7.12395C9.46431 7.21792 9.42782 7.30606 9.36123 7.37247L9.1151 7.6186C9.11341 7.62025 9.11173 7.62194 9.11007 7.62363L7.62219 9.11155ZM8.35021 9.37786L9.37768 8.35038L13.728 12.145L12.1405 13.7325L8.35021 9.37786ZM12.6032 14.2641L14.2591 12.6082L14.7902 13.0715L13.0659 14.7958L12.6032 14.2641ZM17.129 16.5495C16.9021 16.9546 16.5185 17.2219 16.0765 17.2831C15.6356 17.3441 15.2024 17.1989 14.888 16.8847C14.861 16.8577 14.8351 16.8295 14.811 16.801C14.8099 16.7996 14.8087 16.7983 14.8076 16.797L13.5286 15.3274L15.3212 13.5347L16.789 14.815C16.7901 14.816 16.7912 14.8169 16.7924 14.8179C16.9023 14.9113 16.9997 15.0235 17.0825 15.1517C17.3483 15.5625 17.3669 16.1243 17.129 16.5495Z" fill="#333333"/>
<path d="M6.62594 3.64349C6.48862 3.50621 6.26608 3.50621 6.12876 3.64349L4.63714 5.1351C4.49986 5.27239 4.49986 5.495 4.63714 5.63225C4.7058 5.70091 4.79577 5.73522 4.88573 5.73522C4.9757 5.73522 5.06566 5.70087 5.13432 5.63225L6.62594 4.14064C6.76322 4.00339 6.76322 3.78081 6.62594 3.64349Z" fill="#333333"/>
</g>
<defs>
<clipPath id="clip0">
<rect width="18" height="18" fill="white"/>
</clipPath>
</defs>
</svg>
