<svg width="13" height="13" viewBox="0 0 13 13" fill="none" xmlns="http://www.w3.org/2000/svg">
<path d="M6.45299 7.00476C6.46645 7.00476 6.47991 7.00476 6.49606 7.00476C6.50144 7.00476 6.50683 7.00476 6.51221 7.00476C6.52029 7.00476 6.53106 7.00476 6.53913 7.00476C7.32791 6.9913 7.96593 6.71402 8.43704 6.18368C9.47349 5.01532 9.3012 3.01243 9.28235 2.82129C9.21505 1.38642 8.53665 0.699938 7.9767 0.379582C7.55943 0.139988 7.07216 0.0107683 6.52836 0H6.50952C6.50683 0 6.50144 0 6.49875 0H6.4826C6.18378 0 5.59691 0.0484572 5.03427 0.368813C4.46893 0.68917 3.77976 1.37565 3.71246 2.82129C3.69362 3.01243 3.52132 5.01532 4.55777 6.18368C5.02619 6.71402 5.66421 6.9913 6.45299 7.00476ZM4.43124 2.88859C4.43124 2.88051 4.43394 2.87244 4.43394 2.86705C4.52277 0.93684 5.89304 0.729551 6.47991 0.729551H6.49068C6.49606 0.729551 6.50414 0.729551 6.51221 0.729551C7.23907 0.745703 8.47473 1.04183 8.55818 2.86705C8.55818 2.87513 8.55818 2.88321 8.56088 2.88859C8.56357 2.90743 8.75201 4.73804 7.89594 5.7018C7.55673 6.08408 7.10447 6.27252 6.50952 6.2779C6.50414 6.2779 6.50144 6.2779 6.49606 6.2779C6.49068 6.2779 6.48798 6.2779 6.4826 6.2779C5.89034 6.27252 5.43538 6.08408 5.09888 5.7018C4.24549 4.74343 4.42855 2.90474 4.43124 2.88859Z" fill="#FFA132"/>
<path d="M12.0282 10.3268C12.0282 10.3241 12.0282 10.3214 12.0282 10.3187C12.0282 10.2971 12.0256 10.2756 12.0256 10.2514C12.0094 9.71834 11.9744 8.47191 10.8061 8.07349C10.798 8.0708 10.7872 8.0681 10.7791 8.06541C9.56501 7.75582 8.55548 7.05589 8.54471 7.04781C8.3805 6.93205 8.15436 6.97243 8.0386 7.13665C7.92285 7.30086 7.96323 7.527 8.12744 7.64276C8.17321 7.67506 9.24465 8.42077 10.5853 8.76535C11.2126 8.98879 11.2825 9.65912 11.3014 10.2729C11.3014 10.2971 11.3014 10.3187 11.3041 10.3402C11.3068 10.5825 11.2906 10.9567 11.2475 11.1721C10.8114 11.4197 9.10197 12.2758 6.50143 12.2758C3.91166 12.2758 2.19143 11.417 1.75262 11.1694C1.70955 10.954 1.69071 10.5798 1.69609 10.3375C1.69609 10.316 1.69878 10.2944 1.69878 10.2702C1.71763 9.65643 1.78762 8.9861 2.41487 8.76266C3.75552 8.41807 4.82697 7.66968 4.87273 7.64007C5.03695 7.52431 5.07733 7.29817 4.96157 7.13396C4.84581 6.96974 4.61968 6.92936 4.45546 7.04512C4.44469 7.05319 3.44055 7.75313 2.22104 8.06272C2.21028 8.06541 2.2022 8.0681 2.19412 8.0708C1.02577 8.47191 0.990769 9.71834 0.974616 10.2487C0.974616 10.2729 0.974616 10.2944 0.971924 10.316C0.971924 10.3187 0.971924 10.3214 0.971924 10.3241C0.969232 10.464 0.96654 11.1828 1.10922 11.5436C1.13614 11.6136 1.1846 11.6728 1.24921 11.7132C1.32997 11.767 3.26557 13 6.50413 13C9.74268 13 11.6783 11.7643 11.759 11.7132C11.821 11.6728 11.8721 11.6136 11.899 11.5436C12.0336 11.1855 12.0309 10.4667 12.0282 10.3268Z" fill="#FFA132"/>
</svg>
