<svg width="16" height="16" viewBox="0 0 16 16" fill="none" xmlns="http://www.w3.org/2000/svg">
<path d="M7.94182 8.62125C7.95838 8.62125 7.97495 8.62125 7.99483 8.62125C8.00146 8.62125 8.00808 8.62125 8.01471 8.62125C8.02465 8.62125 8.0379 8.62125 8.04784 8.62125C9.01864 8.60468 9.8039 8.26341 10.3837 7.61069C11.6594 6.17271 11.4473 3.7076 11.4241 3.47235C11.3413 1.70636 10.5063 0.861462 9.81715 0.467178C9.30359 0.172292 8.70388 0.0132533 8.03459 0H8.0114C8.00808 0 8.00146 0 7.99814 0H7.97826C7.61049 0 6.88818 0.0596397 6.1957 0.453924C5.4999 0.848209 4.6517 1.6931 4.56886 3.47235C4.54567 3.7076 4.33362 6.17271 5.60924 7.61069C6.18576 8.26341 6.97102 8.60468 7.94182 8.62125ZM5.45352 3.55519C5.45352 3.54525 5.45683 3.53531 5.45683 3.52868C5.56617 1.15303 7.25265 0.897909 7.97495 0.897909H7.9882C7.99483 0.897909 8.00477 0.897909 8.01471 0.897909C8.90931 0.917788 10.4301 1.28225 10.5328 3.52868C10.5328 3.53862 10.5328 3.54856 10.5361 3.55519C10.5395 3.57838 10.7714 5.83144 9.71775 7.0176C9.30028 7.48809 8.74364 7.72003 8.0114 7.72665C8.00477 7.72665 8.00146 7.72665 7.99483 7.72665C7.9882 7.72665 7.98489 7.72665 7.97826 7.72665C7.24933 7.72003 6.68938 7.48809 6.27522 7.0176C5.2249 5.83806 5.45021 3.57507 5.45352 3.55519Z" fill="#706C71"/>
<path d="M14.8038 12.7099C14.8038 12.7066 14.8038 12.7033 14.8038 12.7C14.8038 12.6735 14.8004 12.647 14.8004 12.6171C14.7806 11.9611 14.7375 10.427 13.2995 9.93666C13.2896 9.93334 13.2763 9.93003 13.2664 9.92672C11.7721 9.54569 10.5296 8.68422 10.5163 8.67428C10.3142 8.53181 10.0359 8.58151 9.89342 8.78362C9.75095 8.98574 9.80065 9.26405 10.0028 9.40653C10.0591 9.44629 11.3778 10.3641 13.0278 10.7882C13.7998 11.0632 13.886 11.8882 13.9092 12.6436C13.9092 12.6735 13.9092 12.7 13.9125 12.7265C13.9158 13.0247 13.8959 13.4852 13.8429 13.7503C13.3061 14.0551 11.2022 15.1087 8.00152 15.1087C4.81411 15.1087 2.6969 14.0518 2.15683 13.747C2.10382 13.4819 2.08063 13.0214 2.08725 12.7232C2.08725 12.6967 2.09057 12.6701 2.09057 12.6403C2.11376 11.8849 2.1999 11.0599 2.97191 10.7849C4.62194 10.3608 5.94064 9.43966 5.99696 9.40321C6.19908 9.26074 6.24878 8.98242 6.1063 8.78031C5.96383 8.5782 5.68551 8.5285 5.4834 8.67097C5.47015 8.68091 4.23428 9.54237 2.73335 9.9234C2.7201 9.92672 2.71016 9.93003 2.70022 9.93334C1.26224 10.427 1.21916 11.9611 1.19928 12.6138C1.19928 12.6436 1.19928 12.6701 1.19597 12.6967C1.19597 12.7 1.19597 12.7033 1.19597 12.7066C1.19266 12.8789 1.18934 13.7635 1.36495 14.2075C1.39808 14.2937 1.45772 14.3666 1.53724 14.4163C1.63664 14.4825 4.01891 16 8.00483 16C11.9908 16 14.373 14.4792 14.4724 14.4163C14.5486 14.3666 14.6116 14.2937 14.6447 14.2075C14.8104 13.7669 14.8071 12.8822 14.8038 12.7099Z" fill="#706C71"/>
</svg>
