<svg width="18" height="18" viewBox="0 0 18 18" fill="none" xmlns="http://www.w3.org/2000/svg">
<g clip-path="url(#clip0)">
<path d="M15.6492 4.67889H4.68606C3.6702 4.67889 2.83972 3.85211 2.83972 2.83254C2.83972 1.81668 3.66649 0.9862 4.68606 0.9862H15.6529C15.9273 0.9862 16.146 0.763749 16.146 0.4931C16.146 0.218744 15.9235 0 15.6529 0H4.68606C3.12519 0 1.85352 1.27168 1.85352 2.83254V15.1675C1.85352 16.7283 3.12519 18 4.68606 18H15.6529C15.9273 18 16.146 17.7775 16.146 17.5069V5.17199C16.1423 4.90134 15.9235 4.67889 15.6492 4.67889ZM15.1561 17.0138H4.68606C3.6702 17.0138 2.83972 16.187 2.83972 15.1675V4.9829C3.33652 5.40927 3.98163 5.6688 4.68606 5.6688H15.1561V17.0138Z" fill="#333333"/>
<path d="M4.84173 2.38391C4.56738 2.38391 4.34863 2.60636 4.34863 2.87701C4.34863 3.14766 4.57108 3.37011 4.84173 3.37011H14.1031C14.3775 3.37011 14.5962 3.14766 14.5962 2.87701C14.5962 2.60636 14.3738 2.38391 14.1031 2.38391H4.84173Z" fill="#333333"/>
<path d="M6.57672 14.8561C6.63233 14.8746 6.68795 14.8857 6.74356 14.8857C6.94747 14.8857 7.13655 14.7597 7.207 14.5594L7.80762 12.8799H10.1211C10.1396 12.8799 10.1619 12.8799 10.1804 12.8762L10.781 14.5594C10.8515 14.7597 11.0443 14.8857 11.2445 14.8857C11.3001 14.8857 11.3557 14.8746 11.4113 14.8561C11.6671 14.7634 11.8006 14.4816 11.7079 14.2258L9.46117 7.92669C9.45746 7.91186 9.45005 7.89703 9.44263 7.8822C9.43892 7.87479 9.43522 7.86737 9.43151 7.85996C9.4278 7.85254 9.42409 7.84513 9.42039 7.83771C9.41668 7.8303 9.40926 7.82288 9.40556 7.81176C9.40185 7.80805 9.39814 7.80064 9.39443 7.79693C9.39073 7.78952 9.38331 7.7821 9.3759 7.77469C9.37219 7.77098 9.36848 7.76356 9.36107 7.75986C9.35736 7.75244 9.34994 7.74873 9.34253 7.74132C9.33511 7.7339 9.33141 7.7302 9.32399 7.72278C9.32028 7.71907 9.31287 7.71537 9.30916 7.70795C9.30175 7.70054 9.29433 7.69683 9.28692 7.68941C9.28321 7.68571 9.27579 7.682 9.27209 7.67829C9.26467 7.67458 9.25726 7.66717 9.24984 7.66346C9.24243 7.65975 9.23501 7.65605 9.2276 7.65234C9.22018 7.64863 9.21277 7.64492 9.20535 7.64122C9.19052 7.6338 9.17569 7.62639 9.16086 7.62268H9.15715C9.14232 7.61897 9.12749 7.61526 9.11266 7.61156C9.10525 7.61156 9.10154 7.60785 9.09413 7.60785C9.083 7.60414 9.07559 7.60414 9.06447 7.60043C9.05705 7.60043 9.04963 7.60043 9.04222 7.59672C9.0348 7.59672 9.02368 7.59302 9.01627 7.59302C9.00885 7.59302 9.00144 7.59302 8.99402 7.59302C8.98661 7.59302 8.97919 7.59302 8.96807 7.59302C8.96065 7.59302 8.94953 7.59302 8.94212 7.59672C8.9347 7.59672 8.92729 7.59672 8.91987 7.60043C8.90875 7.60043 8.90133 7.60414 8.89021 7.60785C8.8828 7.60785 8.87909 7.61156 8.87167 7.61156C8.85684 7.61526 8.84201 7.61897 8.83089 7.62268H8.82718C8.81235 7.62639 8.79752 7.6338 8.78269 7.64122C8.77528 7.64492 8.76786 7.64863 8.76045 7.65234C8.75303 7.65605 8.74562 7.65975 8.7382 7.66346C8.73079 7.66717 8.72337 7.67458 8.71225 7.67829C8.70854 7.682 8.70113 7.68571 8.69742 7.68941C8.69001 7.69683 8.68259 7.70054 8.67518 7.70795C8.67147 7.71166 8.66405 7.71537 8.66035 7.72278C8.65293 7.7302 8.64922 7.7339 8.64181 7.74132C8.63439 7.74873 8.63069 7.75244 8.62327 7.75986C8.61956 7.76356 8.61586 7.77098 8.60844 7.77469C8.60103 7.7821 8.59732 7.78952 8.5899 7.79693C8.5862 7.80064 8.58249 7.80805 8.57878 7.81176C8.57507 7.81918 8.56766 7.82659 8.56395 7.83401C8.56024 7.84142 8.55654 7.84884 8.55283 7.85625C8.54912 7.86367 8.54541 7.87108 8.5417 7.8785C8.53429 7.89333 8.52687 7.90816 8.52317 7.92299L6.269 14.2221C6.18743 14.4816 6.3209 14.7634 6.57672 14.8561ZM8.99773 9.558L9.83192 11.8937H8.15983L8.99773 9.558Z" fill="#333333"/>
</g>
<defs>
<clipPath id="clip0">
<rect width="18" height="18" fill="white"/>
</clipPath>
</defs>
</svg>
