<svg width="17" height="17" viewBox="0 0 17 17" fill="none" xmlns="http://www.w3.org/2000/svg">
<path d="M14.5104 2.48957C12.905 0.884133 10.7704 0 8.5 0C6.22957 0 4.09501 0.884133 2.48957 2.48957C0.884166 4.09501 0 6.22957 0 8.5C0 10.7704 0.884166 12.905 2.48957 14.5104C4.09501 16.1159 6.22957 17 8.5 17C10.7704 17 12.905 16.1159 14.5104 14.5104C16.1158 12.905 17 10.7704 17 8.5C17 6.22957 16.1158 4.09501 14.5104 2.48957ZM8.5 16.0039C4.36233 16.0039 0.996094 12.6377 0.996094 8.5C0.996094 4.36233 4.36233 0.996094 8.5 0.996094C12.6377 0.996094 16.0039 4.36233 16.0039 8.5C16.0039 12.6377 12.6377 16.0039 8.5 16.0039Z" fill="#333333"/>
<path d="M9.03255 8.00195H7.9656C7.35775 8.00195 6.86325 7.50745 6.86325 6.89963C6.86325 6.29179 7.35778 5.79729 7.9656 5.79729H10.0995C10.3745 5.79729 10.5975 5.5743 10.5975 5.29924C10.5975 5.02419 10.3745 4.8012 10.0995 4.8012H8.99712V3.69885C8.99712 3.4238 8.77413 3.20081 8.49907 3.20081C8.22402 3.20081 8.00103 3.4238 8.00103 3.69885V4.8012H7.96563C6.80853 4.8012 5.86719 5.74257 5.86719 6.89963C5.86719 8.0567 6.80857 8.99804 7.96563 8.99804H9.03258C9.6404 8.99804 10.1349 9.49257 10.1349 10.1004C10.1349 10.7082 9.6404 11.2027 9.03258 11.2027H6.89871C6.62366 11.2027 6.40066 11.4257 6.40066 11.7008C6.40066 11.9758 6.62366 12.1988 6.89871 12.1988H8.00103V13.3012C8.00103 13.5763 8.22402 13.7992 8.49907 13.7992C8.77413 13.7992 8.99712 13.5763 8.99712 13.3012V12.1988H9.03255C10.1896 12.1988 11.131 11.2574 11.131 10.1004C11.131 8.94332 10.1896 8.00195 9.03255 8.00195Z" fill="#333333"/>
</svg>
