<svg width="18" height="18" viewBox="0 0 18 18" fill="none" xmlns="http://www.w3.org/2000/svg">
<g clip-path="url(#clip0)">
<path d="M17.5369 5.66462C16.9201 5.04777 15.9165 5.0478 15.2994 5.66476C15.1097 5.85471 13.898 7.06736 13.7129 7.25263V3.07357C13.7129 2.65099 13.5483 2.25373 13.2495 1.95493L11.758 0.463359C11.4592 0.164531 11.0619 0 10.6393 0H1.58398C0.711653 0 0.00195312 0.709699 0.00195312 1.58203V16.418C0.00195312 17.2903 0.711653 18 1.58398 18H12.1309C13.0032 18 13.7129 17.2903 13.7129 16.418V11.7292L17.5369 7.90196C18.1552 7.28371 18.1553 6.28295 17.5369 5.66462ZM10.5489 1.05469C10.6485 1.05469 10.8405 1.03743 11.0122 1.20913L12.5038 2.7007C12.6711 2.86808 12.6582 3.05149 12.6582 3.16406H10.5489V1.05469ZM12.6582 16.418C12.6582 16.7087 12.4217 16.9453 12.1309 16.9453H1.58398C1.29321 16.9453 1.05664 16.7087 1.05664 16.418V1.58203C1.05664 1.29125 1.29321 1.05469 1.58398 1.05469H9.49414V3.69141C9.49414 3.98264 9.73025 4.21875 10.0215 4.21875H12.6582V8.30823C12.6582 8.30823 11.1024 9.86537 11.1023 9.86541L10.3569 10.6109C10.299 10.6687 10.2554 10.7393 10.2295 10.817L9.4837 13.0543C9.42053 13.2438 9.46985 13.4528 9.61111 13.594C9.75254 13.7354 9.96155 13.7845 10.1508 13.7214L12.3881 12.9756C12.4658 12.9497 12.5364 12.9061 12.5942 12.8482L12.6582 12.7842V16.418ZM11.4755 10.9838L12.2213 11.7295L11.9364 12.0144L10.8178 12.3873L11.1907 11.2686L11.4755 10.9838ZM12.9669 10.9836L12.2212 10.2378C12.6183 9.84038 14.3821 8.07511 14.7561 7.70073L15.5019 8.4465L12.9669 10.9836ZM16.791 7.15634L16.2474 7.70041L15.5016 6.95464L16.0454 6.41039C16.2511 6.20476 16.5856 6.2048 16.7912 6.41039C16.9968 6.61605 16.9979 6.94944 16.791 7.15634Z" fill="#333333"/>
<path d="M10.0195 5.27344H2.63672C2.34548 5.27344 2.10938 5.50955 2.10938 5.80078C2.10938 6.09202 2.34548 6.32812 2.63672 6.32812H10.0195C10.3108 6.32812 10.5469 6.09202 10.5469 5.80078C10.5469 5.50955 10.3108 5.27344 10.0195 5.27344Z" fill="#333333"/>
<path d="M7.91016 7.38281H2.63672C2.34548 7.38281 2.10938 7.61892 2.10938 7.91016C2.10938 8.20139 2.34548 8.4375 2.63672 8.4375H7.91016C8.20139 8.4375 8.4375 8.20139 8.4375 7.91016C8.4375 7.61892 8.20139 7.38281 7.91016 7.38281Z" fill="#333333"/>
<path d="M7.91016 9.49219H2.63672C2.34548 9.49219 2.10938 9.7283 2.10938 10.0195C2.10938 10.3108 2.34548 10.5469 2.63672 10.5469H7.91016C8.20139 10.5469 8.4375 10.3108 8.4375 10.0195C8.4375 9.7283 8.20139 9.49219 7.91016 9.49219Z" fill="#333333"/>
<path d="M7.91016 11.6016H2.63672C2.34548 11.6016 2.10938 11.8377 2.10938 12.1289C2.10938 12.4201 2.34548 12.6562 2.63672 12.6562H7.91016C8.20139 12.6562 8.4375 12.4201 8.4375 12.1289C8.4375 11.8377 8.20139 11.6016 7.91016 11.6016Z" fill="#333333"/>
<path d="M10.0195 14.8359H6.85547C6.56423 14.8359 6.32812 15.072 6.32812 15.3633C6.32812 15.6545 6.56423 15.8906 6.85547 15.8906H10.0195C10.3108 15.8906 10.5469 15.6545 10.5469 15.3633C10.5469 15.072 10.3108 14.8359 10.0195 14.8359Z" fill="#333333"/>
</g>
<defs>
<clipPath id="clip0">
<rect width="18" height="18" fill="white"/>
</clipPath>
</defs>
</svg>
