<svg width="22" height="17" viewBox="0 0 22 17" fill="none" xmlns="http://www.w3.org/2000/svg">
<path d="M16.7583 10.8782C16.5972 10.814 16.4563 10.8422 16.3356 10.9627L15.5628 11.7355C15.4905 11.8077 15.454 11.8965 15.454 12.0009V13.5224C15.454 14.0537 15.2653 14.5083 14.887 14.8868C14.5084 15.2651 14.0539 15.4542 13.5226 15.4542H3.47715C2.94592 15.4542 2.4911 15.2651 2.11275 14.8868C1.73439 14.5083 1.54532 14.0538 1.54532 13.5224V3.47719C1.54532 2.94592 1.73439 2.49115 2.11275 2.11275C2.4911 1.73447 2.94592 1.54532 3.47715 1.54532H13.5227C13.6997 1.54532 13.8809 1.56946 14.066 1.6178C14.2111 1.66605 14.3397 1.63391 14.4522 1.52121L15.0437 0.929592C15.1404 0.833131 15.1764 0.71633 15.1524 0.579525C15.1282 0.450798 15.0557 0.358186 14.935 0.3019C14.5002 0.100943 14.0295 0 13.5224 0H3.47715C2.5194 0 1.7003 0.340086 1.02009 1.02026C0.340086 1.70052 0 2.5194 0 3.47728V13.5227C0 14.4804 0.340086 15.2994 1.02013 15.9796C1.7003 16.6599 2.51944 17 3.47719 17H13.5224C14.4801 17 15.2991 16.6599 15.9793 15.9796C16.6597 15.2994 16.9997 14.4804 16.9997 13.5227V11.2287C16.9997 11.0594 16.9191 10.9428 16.7583 10.8782Z" fill="#63AE25"/>
<path d="M7.72656 10.432V13.909H11.2039L19.3174 5.79555L15.8401 2.31836L7.72656 10.432ZM10.7207 12.7501L10.0445 12.7498V11.591H8.88557V10.9151L10.2862 9.51447L12.1213 11.3498L10.7207 12.7501ZM16.0211 4.4553L11.7951 8.68113C11.6584 8.81818 11.5255 8.82212 11.3967 8.69331C11.268 8.5645 11.272 8.43171 11.4089 8.29499L15.6348 4.06911C15.7715 3.93214 15.9041 3.92817 16.0332 4.05698C16.1623 4.18579 16.1577 4.31853 16.0211 4.4553Z" fill="#63AE25"/>
<path d="M21.2011 2.26982L19.366 0.434656C19.1407 0.209257 18.8671 0.0965576 18.545 0.0965576C18.223 0.0965576 17.9494 0.209257 17.7242 0.434656L16.6133 1.54529L20.0906 5.02265L21.2012 3.91181C21.4265 3.68654 21.5391 3.4128 21.5391 3.09081C21.5391 2.76883 21.4265 2.49522 21.2011 2.26982Z" fill="#63AE25"/>
</svg>
