<svg width="17" height="13" viewBox="0 0 17 13" fill="none" xmlns="http://www.w3.org/2000/svg">
<path d="M13.3463 8.31473C13.2231 8.2656 13.1154 8.28716 13.0232 8.37931L12.4325 8.96999C12.3772 9.02519 12.3493 9.09301 12.3493 9.17285V10.3358C12.3493 10.7419 12.2051 11.0894 11.9159 11.3786C11.6266 11.6678 11.2791 11.8124 10.873 11.8124H3.19485C2.78881 11.8124 2.44117 11.6678 2.15198 11.3786C1.86278 11.0894 1.71826 10.7419 1.71826 10.3358V2.65778C1.71826 2.2517 1.86278 1.9041 2.15198 1.61487C2.44117 1.32574 2.78881 1.18116 3.19485 1.18116H10.8731C11.0084 1.18116 11.1469 1.19961 11.2884 1.23656C11.3993 1.27344 11.4976 1.24887 11.5836 1.16273L12.0357 0.710529C12.1096 0.6368 12.1371 0.547523 12.1187 0.442958C12.1003 0.344566 12.0449 0.273778 11.9526 0.230756C11.6203 0.0771555 11.2605 0 10.8729 0H3.19485C2.4628 0 1.83673 0.259943 1.31681 0.77983C0.797053 1.29978 0.537109 1.92569 0.537109 2.65784V10.336C0.537109 11.068 0.797053 11.694 1.31684 12.2139C1.83673 12.7339 2.46283 12.9939 3.19489 12.9939H10.8729C11.6049 12.9939 12.2309 12.7339 12.7508 12.2139C13.2708 11.694 13.5308 11.0681 13.5308 10.336V8.58263C13.5308 8.4532 13.4691 8.36409 13.3463 8.31473Z" fill="#333333"/>
<path d="M6.44336 7.9736V10.6313H9.10127L15.3028 4.42975L12.6449 1.77197L6.44336 7.9736ZM8.73194 9.7454L8.21509 9.74517V8.85949H7.32924V8.34283L8.39979 7.27229L9.80249 8.67512L8.73194 9.7454ZM12.7832 3.40533L9.55314 6.63532C9.44861 6.74008 9.34705 6.74309 9.24863 6.64463C9.15027 6.54618 9.15327 6.44468 9.2579 6.34018L12.488 3.11015C12.5925 3.00546 12.6938 3.00242 12.7925 3.10088C12.8912 3.19933 12.8876 3.3008 12.7832 3.40533Z" fill="#333333"/>
<path d="M16.7411 1.73498L15.3384 0.332277C15.1662 0.159994 14.9571 0.0738525 14.7109 0.0738525C14.4648 0.0738525 14.2556 0.159994 14.0835 0.332277L13.2344 1.18118L15.8922 3.83909L16.7411 2.99002C16.9133 2.81784 16.9994 2.60861 16.9994 2.3625C16.9994 2.11639 16.9133 1.90726 16.7411 1.73498Z" fill="#333333"/>
</svg>
