<svg width="18" height="18" viewBox="0 0 18 18" fill="none" xmlns="http://www.w3.org/2000/svg">
<g clip-path="url(#clip0)">
<path d="M10.9188 8.4625C11.7252 7.82547 12.2433 6.84155 12.2433 5.73934C12.2433 3.82332 10.6779 2.26453 8.75377 2.26453C6.82959 2.26453 5.26416 3.82332 5.26416 5.73934C5.26416 5.86491 5.27105 5.98894 5.28416 6.11111C4.88753 5.89451 4.43264 5.77108 3.94924 5.77108C2.41316 5.77108 1.1635 7.01572 1.1635 8.54558C1.1635 9.3432 1.50367 10.0628 2.04652 10.5694C0.842871 11.0978 0 12.301 0 13.6976V16.9239C0 17.5173 0.482695 18 1.07603 18H4.98509H5.33665H12.5224C13.21 18 13.7694 17.4406 13.7694 16.7529V12.5211C13.7694 10.6558 12.5794 9.06329 10.9188 8.4625ZM8.75377 3.31921C10.0964 3.31921 11.1887 4.40487 11.1887 5.73934C11.1887 7.0738 10.0964 8.15946 8.75377 8.15946C7.41115 8.15946 6.31884 7.0738 6.31884 5.73934C6.31884 4.40487 7.41115 3.31921 8.75377 3.31921ZM3.94924 6.82577C4.90377 6.82577 5.68034 7.59727 5.68034 8.54558C5.68034 8.68311 5.66374 8.81959 5.63161 8.95167C5.14663 9.28164 4.73207 9.7077 4.41559 10.2024C4.26466 10.2442 4.10839 10.2654 3.94924 10.2654C2.99475 10.2654 2.21818 9.49392 2.21818 8.54558C2.21818 7.59731 2.99475 6.82577 3.94924 6.82577ZM1.05469 16.9239V13.6976C1.05469 12.3963 2.11335 11.3377 3.41462 11.3377H3.90312C3.79564 11.7139 3.73806 12.1109 3.73806 12.5211V16.7529C3.73806 16.8183 3.74319 16.8826 3.75293 16.9453H1.07603C1.06548 16.9453 1.05469 16.9345 1.05469 16.9239ZM12.7148 16.7529C12.7148 16.8572 12.6266 16.9453 12.5224 16.9453H5.33668H4.98512C4.88085 16.9453 4.79275 16.8572 4.79275 16.7529V12.5211C4.79275 10.7237 6.25507 9.26136 8.0525 9.26136H9.45499C11.2524 9.26136 12.7148 10.7237 12.7148 12.5211V16.7529Z" fill="#333333"/>
<path d="M17.4718 1.48915H16.5025V0.527344C16.5025 0.236109 16.2664 0 15.9751 0C15.6839 0 15.4478 0.236109 15.4478 0.527344V1.48915H14.4785C14.1873 1.48915 13.9512 1.72526 13.9512 2.01649C13.9512 2.30773 14.1873 2.54384 14.4785 2.54384H15.4478V3.50568C15.4478 3.79691 15.6839 4.03302 15.9751 4.03302C16.2664 4.03302 16.5025 3.79691 16.5025 3.50568V2.54384H17.4718C17.763 2.54384 17.9991 2.30773 17.9991 2.01649C17.9991 1.72526 17.763 1.48915 17.4718 1.48915Z" fill="#333333"/>
</g>
<defs>
<clipPath id="clip0">
<rect width="18" height="18" fill="white"/>
</clipPath>
</defs>
</svg>
