<svg width="22" height="19" viewBox="0 0 22 19" fill="none" xmlns="http://www.w3.org/2000/svg">
<path d="M6.125 0.75C7.9375 0.75 9.5625 1.48438 11 2.95312C12.4375 1.48438 14.0625 0.75 15.875 0.75C17.4375 0.75 18.7656 1.3125 19.8594 2.4375C20.9531 3.53125 21.5 4.84375 21.5 6.375C21.5 7 21.3438 7.64062 21.0312 8.29688C20.7188 8.92188 20.4062 9.39062 20.0938 9.70312L19.625 10.125L11.5625 18.2812L11 18.8438L10.4375 18.2812L2.375 10.125C2.0625 9.84375 1.75 9.48438 1.4375 9.04688C0.8125 8.10938 0.5 7.21875 0.5 6.375C0.5 4.84375 1.04688 3.53125 2.14062 2.4375C3.23438 1.3125 4.5625 0.75 6.125 0.75ZM6.125 2.25C5 2.25 4.03125 2.65625 3.21875 3.46875C2.40625 4.28125 2 5.25 2 6.375C2 6.90625 2.21875 7.51562 2.65625 8.20312L3.40625 9.09375L11 16.6875L18.5938 9.09375C19.5312 8.0625 20 7.15625 20 6.375C20 5.25 19.5938 4.28125 18.7812 3.46875C17.9688 2.65625 17 2.25 15.875 2.25C15.2188 2.25 14.5312 2.4375 13.8125 2.8125C13.0938 3.15625 12.5312 3.51562 12.125 3.89062L11.5625 4.40625L11 5.0625L10.4375 4.40625C10.2812 4.25 10.0625 4.0625 9.78125 3.84375C9.53125 3.59375 9.01562 3.26562 8.23438 2.85938C7.48438 2.45312 6.78125 2.25 6.125 2.25Z" fill="#333333"/>
</svg>
