<svg width="18" height="18" viewBox="0 0 18 18" fill="none" xmlns="http://www.w3.org/2000/svg">
<g clip-path="url(#clip0)">
<path d="M17.8338 8.16176L9.36318 0.587034C9.34837 0.572225 9.33356 0.561118 9.31505 0.550011C9.12994 0.372305 8.83376 0.364901 8.63754 0.538905L0.16688 8.11363C-0.0404435 8.29874 -0.0552524 8.61343 0.126156 8.82075C0.226116 8.93182 0.363098 8.98735 0.500079 8.98735C0.61855 8.98735 0.737021 8.94663 0.833278 8.86147L2.35859 7.49536V7.76192V11.7159V16.3288C2.35859 17.0211 2.92133 17.5876 3.61734 17.5876C3.62845 17.5876 3.63585 17.5876 3.64696 17.5876C3.65807 17.5876 3.66547 17.5876 3.67658 17.5876H6.29034C6.94193 17.5876 7.47134 17.0582 7.47134 16.4066V11.9158C7.47134 11.8158 7.55279 11.7344 7.65275 11.7344H10.3517C10.4516 11.7344 10.5331 11.8158 10.5331 11.9158V16.4066C10.5331 17.0582 11.0625 17.5876 11.7141 17.5876H14.3871C15.0905 17.5876 15.6458 16.8953 15.6458 16.0104V11.8936V10.6348V7.54349L17.1711 8.9096C17.2674 8.99475 17.3859 9.03548 17.5043 9.03548C17.6413 9.03548 17.7783 8.97995 17.8783 8.86888C18.056 8.66156 18.0375 8.34687 17.8338 8.16176ZM14.6425 10.6311V11.8899V16.003C14.6425 16.3622 14.4648 16.5806 14.3834 16.5806H11.7104C11.6104 16.5806 11.529 16.4991 11.529 16.3992V11.9158C11.529 11.2642 10.9996 10.7348 10.348 10.7348H7.64905C6.99746 10.7348 6.46805 11.2642 6.46805 11.9158V16.4066C6.46805 16.5065 6.3866 16.588 6.28664 16.588H3.67288C3.66177 16.588 3.65436 16.588 3.64326 16.588C3.63215 16.588 3.62475 16.588 3.61364 16.588C3.47296 16.588 3.35449 16.4732 3.35449 16.3288V11.7122V7.75822V6.59942L8.97444 1.57923L14.6425 6.64755V10.6311Z" fill="#333333"/>
</g>
<defs>
<clipPath id="clip0">
<rect width="18" height="18" fill="white"/>
</clipPath>
</defs>
</svg>
