<svg width="18" height="18" viewBox="0 0 18 18" fill="none" xmlns="http://www.w3.org/2000/svg">
<path d="M6.76947 4.29316L8.72095 5.73455C8.8021 5.79638 8.89871 5.82343 8.99532 5.82343C9.09193 5.82343 9.18854 5.79251 9.26969 5.73455L11.2212 4.29316C11.341 4.20428 11.4105 4.06903 11.4105 3.91832V1.42197C11.4105 1.16693 11.2018 0.958252 10.9468 0.958252H7.0477C6.79266 0.958252 6.58398 1.16693 6.58398 1.42197V3.91832C6.58398 4.06516 6.65354 4.20428 6.76947 4.29316ZM7.51142 1.88569H10.4908V3.6826L8.99918 4.78393L7.51142 3.68646V1.88569Z" fill="#333333"/>
<path d="M16.0601 2.92908H12.6015C12.3465 2.92908 12.1378 3.13775 12.1378 3.3928C12.1378 3.64784 12.3465 3.85651 12.6015 3.85651H16.0601C16.6204 3.85651 17.0726 4.3125 17.0726 4.86897V15.1017C17.0726 15.662 16.6166 16.1141 16.0601 16.1141H1.93989C1.37956 16.1141 0.927437 15.6581 0.927437 15.1017V4.86897C0.927437 4.30864 1.38343 3.85651 1.93989 3.85651H5.39459C5.64964 3.85651 5.85831 3.64784 5.85831 3.3928C5.85831 3.13775 5.64964 2.92908 5.39459 2.92908H1.93989C0.869472 2.92908 0 3.79855 0 4.86897V15.1017C0 16.1721 0.869472 17.0416 1.93989 17.0416H16.0601C17.1305 17.0416 18 16.1721 18 15.1017V4.86897C18 3.79855 17.1305 2.92908 16.0601 2.92908Z" fill="#333333"/>
<path d="M3.35742 7.78651C3.35742 8.67917 4.08392 9.40566 4.97658 9.40566C5.86924 9.40566 6.59573 8.67917 6.59573 7.78651C6.59573 6.89385 5.86924 6.16736 4.97658 6.16736C4.08392 6.16736 3.35742 6.89385 3.35742 7.78651ZM5.66829 7.78651C5.66829 8.16908 5.35914 8.47822 4.97658 8.47822C4.59401 8.47822 4.28486 8.16908 4.28486 7.78651C4.28486 7.40394 4.59401 7.09479 4.97658 7.09479C5.35914 7.09479 5.66829 7.40394 5.66829 7.78651Z" fill="#333333"/>
<path d="M4.97734 9.73804C4.0615 9.73804 3.31955 10.1631 2.83264 10.9669C2.48099 11.5465 2.26072 12.331 2.17184 13.297C2.14866 13.5521 2.33801 13.7762 2.59305 13.7994C2.8481 13.8226 3.07223 13.6332 3.09542 13.3782C3.26158 11.5774 3.89533 10.6655 4.97734 10.6655C6.05935 10.6655 6.6931 11.5774 6.85926 13.3782C6.88245 13.6178 7.08339 13.7994 7.31912 13.7994C7.33457 13.7994 7.34617 13.7994 7.36162 13.7955C7.61667 13.7724 7.80602 13.5482 7.78284 13.2932C7.69396 12.3271 7.46983 11.5465 7.12204 10.963C6.63513 10.1631 5.89318 9.73804 4.97734 9.73804Z" fill="#333333"/>
<path d="M14.7347 7.03296H9.55649C9.30145 7.03296 9.09277 7.24163 9.09277 7.49668C9.09277 7.75172 9.30145 7.96039 9.55649 7.96039H14.7347C14.9897 7.96039 15.1984 7.75172 15.1984 7.49668C15.1984 7.24163 14.9897 7.03296 14.7347 7.03296Z" fill="#333333"/>
<path d="M15.1984 10.8161C15.1984 10.5611 14.9897 10.3524 14.7347 10.3524H9.55649C9.30145 10.3524 9.09277 10.5611 9.09277 10.8161C9.09277 11.0712 9.30145 11.2799 9.55649 11.2799H14.7347C14.9897 11.2799 15.1984 11.075 15.1984 10.8161Z" fill="#333333"/>
<path d="M9.5565 12.0063C9.30145 12.0063 9.09277 12.215 9.09277 12.4701C9.09277 12.7251 9.30145 12.9338 9.5565 12.9338H12.1456C12.4007 12.9338 12.6093 12.7251 12.6093 12.4701C12.6093 12.215 12.4007 12.0063 12.1456 12.0063H9.5565Z" fill="#333333"/>
<path d="M14.7347 8.68689H9.55649C9.30145 8.68689 9.09277 8.89556 9.09277 9.15061C9.09277 9.40565 9.30145 9.61433 9.55649 9.61433H14.7347C14.9897 9.61433 15.1984 9.40565 15.1984 9.15061C15.1984 8.89556 14.9897 8.68689 14.7347 8.68689Z" fill="#333333"/>
</svg>
