<svg width="18" height="18" viewBox="0 0 18 18" fill="none" xmlns="http://www.w3.org/2000/svg">
<path fill-rule="evenodd" clip-rule="evenodd" d="M5.28931 0.0541599C6.24926 0.0103604 6.55575 0 9.00002 0C11.4443 0 11.7507 0.0103604 12.7107 0.0541599C13.6686 0.0978523 14.3229 0.250007 14.8953 0.472506C15.4872 0.702472 15.9891 1.01021 16.4895 1.51055C16.9898 2.01092 17.2975 2.51283 17.5275 3.10466C17.75 3.67712 17.9021 4.33137 17.9458 5.28931C17.9896 6.24926 18 6.55575 18 9.00002C18 11.4443 17.9896 11.7507 17.9458 12.7107C17.9021 13.6686 17.75 14.3229 17.5275 14.8953C17.2975 15.4872 16.9898 15.9891 16.4895 16.4895C15.9891 16.9898 15.4872 17.2975 14.8953 17.5275C14.3229 17.75 13.6686 17.9021 12.7107 17.9458C11.7507 17.9896 11.4443 18 9.00002 18C6.55575 18 6.24926 17.9896 5.28931 17.9458C4.33137 17.9021 3.67712 17.75 3.10466 17.5275C2.51283 17.2975 2.01092 16.9898 1.51055 16.4895C1.01021 15.9891 0.702472 15.4872 0.472506 14.8953C0.250007 14.3229 0.0978523 13.6686 0.0541599 12.7107C0.0103604 11.7507 0 11.4443 0 9.00002C0 6.55575 0.0103604 6.24926 0.0541599 5.28931C0.0978523 4.33137 0.250007 3.67712 0.472506 3.10466C0.702472 2.51283 1.01021 2.01092 1.51055 1.51055C2.01092 1.01021 2.51283 0.702472 3.10466 0.472506C3.67712 0.250007 4.33137 0.0978523 5.28931 0.0541599ZM14.3079 1.98399C13.9908 1.86074 13.5143 1.71412 12.6368 1.67411C11.6878 1.63081 11.4031 1.62163 9.00002 1.62163C6.5969 1.62163 6.31224 1.63081 5.36323 1.67411C4.48574 1.71412 4.00919 1.86074 3.69206 1.98399C3.27196 2.14726 2.97215 2.34229 2.65723 2.65724C2.34227 2.97216 2.14725 3.27197 1.98398 3.69207C1.86073 4.0092 1.71411 4.48575 1.6741 5.36324C1.6308 6.31225 1.62162 6.59691 1.62162 9.00003C1.62162 11.4031 1.6308 11.6878 1.6741 12.6368C1.71411 13.5143 1.86073 13.9908 1.98398 14.308C2.14725 14.7281 2.34231 15.0279 2.65723 15.3428C2.97215 15.6577 3.27196 15.8528 3.69206 16.016C4.00919 16.1393 4.48574 16.2859 5.36323 16.3259C6.31213 16.3692 6.59672 16.3784 9.00002 16.3784C11.4033 16.3784 11.6879 16.3692 12.6368 16.3259C13.5143 16.2859 13.9908 16.1393 14.3079 16.016C14.728 15.8528 15.0278 15.6577 15.3428 15.3428C15.6577 15.0279 15.8528 14.7281 16.016 14.308C16.1393 13.9908 16.2859 13.5143 16.3259 12.6368C16.3692 11.6878 16.3784 11.4031 16.3784 9.00003C16.3784 6.59691 16.3692 6.31225 16.3259 5.36324C16.2859 4.48575 16.1393 4.0092 16.016 3.69207C15.8528 3.27197 15.6577 2.97216 15.3428 2.65724C15.0278 2.34229 14.728 2.14726 14.3079 1.98399ZM9.00002 4.3784C6.44754 4.3784 4.37838 6.44755 4.37838 9.00004C4.37838 11.5525 6.44754 13.6216 9.00002 13.6216C11.5525 13.6216 13.6216 11.5525 13.6216 9.00004C13.6216 6.44755 11.5525 4.3784 9.00002 4.3784ZM6 9.00002C6 10.6569 7.34314 12 9.00002 12C10.6569 12 12 10.6569 12 9.00002C12 7.34314 10.6569 6 9.00002 6C7.34314 6 6 7.34314 6 9.00002ZM13.8042 5.27578C14.4007 5.27578 14.8842 4.79227 14.8842 4.1958C14.8842 3.59932 14.4007 3.11578 13.8042 3.11578C13.2078 3.11578 12.7242 3.59932 12.7242 4.1958C12.7242 4.79227 13.2078 5.27578 13.8042 5.27578Z" fill="black"/>
</svg>
