<svg width="24" height="24" viewBox="0 0 24 24" fill="none" xmlns="http://www.w3.org/2000/svg">
<path fill-rule="evenodd" clip-rule="evenodd" d="M11.6364 2.44995C14.5181 2.44995 16.8683 4.80011 16.8683 7.68177C16.8683 10.5634 14.5181 12.9136 11.6364 12.9136C8.75477 12.9136 6.40461 10.5634 6.40461 7.68177C6.40461 4.80011 8.75477 2.44995 11.6364 2.44995ZM11.6364 12.8136C16.1172 12.8136 19.824 16.236 20.2353 20.6416C20.2818 21.139 19.8632 21.5384 19.3638 21.5244C18.8803 21.5108 18.5018 21.113 18.4417 20.6331C18.0177 17.2468 15.1407 14.6409 11.6364 14.6409C8.14167 14.6409 5.27087 17.2326 4.79575 20.6444C4.72688 21.139 4.31864 21.5385 3.81949 21.5244C3.33542 21.5108 2.94509 21.1133 2.99329 20.6315C3.43137 16.2522 7.14511 12.8136 11.6364 12.8136ZM11.6364 4.27722C9.74785 4.27722 8.23189 5.79319 8.23189 7.68177C8.23189 9.57035 9.74785 11.0863 11.6364 11.0863C13.525 11.0863 15.041 9.57035 15.041 7.68177C15.041 5.79319 13.525 4.27722 11.6364 4.27722Z" fill="#333333"/>
</svg>
