<svg width="18" height="18" viewBox="0 0 18 18" fill="none" xmlns="http://www.w3.org/2000/svg">
<path d="M8.69556 16.9686H4.00073C2.72484 16.9686 1.68961 15.9295 1.68961 14.6575V3.34253C1.68961 2.06664 2.72866 1.03141 4.00073 1.03141H8.77196C9.05846 1.03141 9.28766 0.802207 9.28766 0.515705C9.28766 0.229202 9.05846 0 8.77196 0H4.00073C2.15566 0 0.658203 1.50127 0.658203 3.34253V14.6575C0.658203 16.5025 2.15948 18 4.00073 18H8.69556C8.98206 18 9.21126 17.7708 9.21126 17.4843C9.21126 17.1978 8.97824 16.9686 8.69556 16.9686Z" fill="#333333"/>
<path d="M17.1915 8.63708L13.9139 5.35949C13.7115 5.15703 13.3867 5.15703 13.1843 5.35949C12.9818 5.56195 12.9818 5.88665 13.1843 6.08911L15.5833 8.4881H5.1202C4.83369 8.4881 4.60449 8.7173 4.60449 9.0038C4.60449 9.2903 4.83369 9.51951 5.1202 9.51951H15.5833L13.1843 11.9185C12.9818 12.1209 12.9818 12.4457 13.1843 12.6481C13.2836 12.7474 13.4173 12.8009 13.5472 12.8009C13.6771 12.8009 13.8108 12.7513 13.9101 12.6481L17.1877 9.37052C17.394 9.16424 17.394 8.83572 17.1915 8.63708Z" fill="#333333"/>
</svg>
