<svg width="15" height="15" viewBox="0 0 15 15" fill="none" xmlns="http://www.w3.org/2000/svg">
<path d="M7.24613 14.1405H3.33378C2.27054 14.1405 1.40785 13.2746 1.40785 12.2146V2.78544C1.40785 1.7222 2.27372 0.859508 3.33378 0.859508H7.3098C7.54855 0.859508 7.73956 0.668506 7.73956 0.429754C7.73956 0.191002 7.54855 0 7.3098 0H3.33378C1.79622 0 0.54834 1.25106 0.54834 2.78544V12.2146C0.54834 13.7521 1.7994 15 3.33378 15H7.24613C7.48489 15 7.67589 14.809 7.67589 14.5702C7.67589 14.3315 7.4817 14.1405 7.24613 14.1405Z" fill="#706C71"/>
<path d="M14.3261 7.19758L11.5948 4.46626C11.426 4.29754 11.1555 4.29754 10.9867 4.46626C10.818 4.63498 10.818 4.90556 10.9867 5.07428L12.9859 7.07343H4.26667C4.02792 7.07343 3.83691 7.26444 3.83691 7.50319C3.83691 7.74194 4.02792 7.93294 4.26667 7.93294H12.9859L10.9867 9.93209C10.818 10.1008 10.818 10.3714 10.9867 10.5401C11.0695 10.6229 11.1809 10.6674 11.2892 10.6674C11.3974 10.6674 11.5088 10.6261 11.5916 10.5401L14.3229 7.80879C14.4948 7.63689 14.4948 7.36312 14.3261 7.19758Z" fill="#706C71"/>
</svg>
