<svg width="17" height="17" viewBox="0 0 17 17" fill="none" xmlns="http://www.w3.org/2000/svg">
<path d="M15.5555 12.1706C14.1 10.9119 12.7531 9.13605 12.7531 4.70225C12.7531 2.13452 10.664 0.0455322 8.09621 0.0455322C5.52805 0.0455322 3.43872 2.13452 3.43872 4.70225C3.43872 9.14008 2.0923 10.9142 0.635559 12.1718C0.231678 12.5236 0 13.0301 0 13.5617C0 13.8543 0.237187 14.0915 0.529751 14.0915H5.55708C5.80232 15.2684 6.84742 16.1555 8.09593 16.1555C9.34445 16.1555 10.3896 15.2685 10.6348 14.0915H15.6621C15.9547 14.0915 16.1919 13.8543 16.1919 13.5617C16.1919 13.0258 15.9596 12.5185 15.5555 12.1706ZM8.09593 15.096C7.43622 15.096 6.87249 14.6772 6.65635 14.0915H9.53551C9.31937 14.6772 8.75565 15.096 8.09593 15.096ZM1.26815 13.032C1.28744 13.0111 1.30799 12.9912 1.32967 12.9723C3.5506 11.0549 4.49815 8.58158 4.49815 4.70225C4.49815 2.71872 6.11226 1.10503 8.09614 1.10503C10.0797 1.10503 11.6935 2.71872 11.6935 4.70225C11.6935 8.57805 12.6412 11.0513 14.8632 12.9728C14.8849 12.9915 14.9055 13.0112 14.9248 13.032H1.26815Z" fill="#333333"/>
</svg>
