<svg width="20" height="20" viewBox="0 0 20 20" fill="none" xmlns="http://www.w3.org/2000/svg">
<g clip-path="url(#clip0)">
<path d="M19.0942 13.9872C20.159 11.7513 20.2895 9.23471 19.4618 6.90035C17.7532 2.08248 12.4429 -0.446756 7.62499 1.26215C5.29274 2.08952 3.44101 3.76501 2.3864 5.94987L1.36661 3.07413C1.23681 2.70829 0.835086 2.51657 0.46854 2.64638C0.102345 2.77618 -0.0893706 3.17825 0.040785 3.5448L1.67688 8.15864C1.73914 8.33418 1.86894 8.47805 2.03709 8.55861C2.13242 8.60399 2.23584 8.62685 2.33962 8.62685C2.41912 8.62685 2.49862 8.61348 2.5746 8.5864L7.44523 6.85885C7.81143 6.72904 8.00315 6.32661 7.87299 5.96042C7.74319 5.59458 7.34005 5.40286 6.97492 5.53267L3.56554 6.74206C4.44392 4.80098 6.05362 3.31228 8.09461 2.58798C12.1818 1.13868 16.6852 3.28414 18.1349 7.37103C19.5845 11.4576 17.4387 15.962 13.3522 17.4117C10.3938 18.4599 7.10015 17.654 4.96172 15.3552C4.69719 15.0703 4.25185 15.0548 3.96726 15.3193C3.68268 15.5838 3.66685 16.0292 3.93138 16.3134C5.71874 18.2348 8.19029 19.2718 10.7213 19.2718C11.7594 19.2718 12.8076 19.0973 13.8218 18.7371C16.1572 17.9098 18.029 16.223 19.0942 13.9872Z" fill="#333333"/>
</g>
<defs>
<clipPath id="clip0">
<rect width="20" height="20" fill="white"/>
</clipPath>
</defs>
</svg>
