<svg width="55" height="63" viewBox="0 0 55 63" fill="none" xmlns="http://www.w3.org/2000/svg">
<g clip-path="url(#clip0)">
<path fill-rule="evenodd" clip-rule="evenodd" d="M31.4883 54.3308L34.2649 56.3497L40.4679 63L32.6107 61.0405L31.4883 54.3308Z" fill="#5CB12E"/>
<path fill-rule="evenodd" clip-rule="evenodd" d="M25.0471 7.06598L17.8398 4.27521L26.1105 0L33.3178 1.95947L25.0471 7.06598Z" fill="#CEDA5B"/>
<path fill-rule="evenodd" clip-rule="evenodd" d="M25.0508 7.06599L33.3215 1.95948L38.4611 1.24695L33.7941 10.8068L25.0508 7.06599Z" fill="#5CB12E"/>
<path fill-rule="evenodd" clip-rule="evenodd" d="M33.793 10.8068L38.46 1.24695L41.7092 7.89728L33.793 10.8068Z" fill="#AFCA05"/>
<path fill-rule="evenodd" clip-rule="evenodd" d="M33.793 10.8067L41.7092 7.89722L47.735 10.3911L36.2151 17.6946L33.793 10.8067Z" fill="#106220"/>
<path fill-rule="evenodd" clip-rule="evenodd" d="M36.2148 17.6946L47.7347 10.3911L50.4522 15.3195L49.2707 21.3167L42.3588 28.0857L36.2148 17.6946Z" fill="#ACCC58"/>
<path fill-rule="evenodd" clip-rule="evenodd" d="M49.2695 21.3167L50.4511 15.3195L52.1643 13.8944L54.1138 15.7945L54.9999 21.0198L53.1686 21.8511L49.2695 21.3167Z" fill="#5CB12E"/>
<path fill-rule="evenodd" clip-rule="evenodd" d="M42.3594 28.0857L49.2713 21.3167L49.7439 24.7606L52.875 25.9481L52.0479 30.164L49.4485 31.114L42.3594 28.0857Z" fill="#106220"/>
<path fill-rule="evenodd" clip-rule="evenodd" d="M42.3557 28.0857L48.6178 30.7577L45.723 36.5767L43.7735 36.9924L39.4609 34.1422L42.3557 28.0857Z" fill="#5CB12E"/>
<path fill-rule="evenodd" clip-rule="evenodd" d="M25.0471 7.06603L17.8398 4.27527V6.17536L21.6207 10.5693L33.7904 10.8068L25.0471 7.06603Z" fill="#106220"/>
<path fill-rule="evenodd" clip-rule="evenodd" d="M17.8396 6.17527V5.22522L10.6914 9.02541L12.5228 15.3788L21.6205 10.5692L17.8396 6.17527Z" fill="#5CB12E"/>
<path fill-rule="evenodd" clip-rule="evenodd" d="M12.5234 15.3788L21.6212 10.5692L21.503 18.6446L12.5234 15.3788Z" fill="#CEDA5B"/>
<path fill-rule="evenodd" clip-rule="evenodd" d="M21.6221 10.5692L21.5039 18.6446L36.2139 17.6946L33.7918 10.8067L21.6221 10.5692Z" fill="#5CB12E"/>
<path fill-rule="evenodd" clip-rule="evenodd" d="M12.5234 15.3789L21.2667 24.2856L21.503 18.6447L12.5234 15.3789Z" fill="#106220"/>
<path fill-rule="evenodd" clip-rule="evenodd" d="M21.2671 24.2856L12.5239 15.3789L6.73438 19.8916L8.03405 24.1075L20.8536 30.0453L21.2671 24.2856Z" fill="#5CB12E"/>
<path fill-rule="evenodd" clip-rule="evenodd" d="M21.2651 24.2855L20.8516 30.0452L30.0675 30.1046L36.2114 17.6946L21.5014 18.6446L21.2651 24.2855Z" fill="#106220"/>
<path fill-rule="evenodd" clip-rule="evenodd" d="M36.2142 17.6946L30.0703 30.1046L42.3582 28.0857L36.2142 17.6946Z" fill="#5CB12E"/>
<path fill-rule="evenodd" clip-rule="evenodd" d="M42.3582 28.0857L30.0703 30.1045L37.1004 36.1017L39.4634 34.1422L42.3582 28.0857Z" fill="#106220"/>
<path fill-rule="evenodd" clip-rule="evenodd" d="M30.0675 30.1047L20.8516 30.0453L25.3414 37.2894L30.0675 30.1047Z" fill="#CEDA5B"/>
<path fill-rule="evenodd" clip-rule="evenodd" d="M15.3594 37.8238L16.6591 42.7522L23.3937 40.3771L25.3433 37.2894L20.8535 30.0453L15.3594 37.8238Z" fill="#5CB12E"/>
<path fill-rule="evenodd" clip-rule="evenodd" d="M20.8534 30.0452L15.3593 37.8237L9.27442 38.4175L4.37109 25.8888L8.03382 24.1074L20.8534 30.0452Z" fill="#106220"/>
<path fill-rule="evenodd" clip-rule="evenodd" d="M39.463 34.1423L43.7756 36.9925L30.6016 41.5052L37.1 36.1018L39.463 34.1423Z" fill="#AFCA05"/>
<path fill-rule="evenodd" clip-rule="evenodd" d="M49.2695 21.3167L53.1686 21.8511L52.8732 25.9481L49.7421 24.7606L49.2695 21.3167Z" fill="#CEDA5B"/>
<path fill-rule="evenodd" clip-rule="evenodd" d="M41.7088 7.89728L39.582 3.62207L47.321 3.20642L50.3339 8.60981L47.7346 10.3912L41.7088 7.89728Z" fill="#CEDA5B"/>
<path fill-rule="evenodd" clip-rule="evenodd" d="M47.7344 10.3911L50.3337 8.60974L53.8192 12.4099L50.4519 15.3194L47.7344 10.3911Z" fill="#106220"/>
<path fill-rule="evenodd" clip-rule="evenodd" d="M12.5234 15.3789L6.73391 19.8916L2.00781 18.6447L8.56528 14.9633L12.5234 15.3789Z" fill="#106220"/>
<path fill-rule="evenodd" clip-rule="evenodd" d="M8.56641 14.9633L10.6932 9.02551L12.5245 15.379L8.56641 14.9633Z" fill="#CEDA5B"/>
<path fill-rule="evenodd" clip-rule="evenodd" d="M2.00859 18.6447L0 21.4354L4.37164 25.8888L8.03437 24.1074L6.73469 19.8916L2.00859 18.6447Z" fill="#CEDA5B"/>
<path fill-rule="evenodd" clip-rule="evenodd" d="M36.2109 17.6946L30.4805 18.1102L31.4257 21.1385L34.6158 20.901L36.2109 17.6946Z" fill="#E3000F"/>
<path fill-rule="evenodd" clip-rule="evenodd" d="M42.3582 28.0858L44.8394 25.6513L43.4216 23.6324L40.5859 25.1169L42.3582 28.0858Z" fill="#E3000F"/>
<path fill-rule="evenodd" clip-rule="evenodd" d="M50.4532 15.3195L49.3308 13.36L46.6133 17.1008L49.8625 18.3477L50.4532 15.3195Z" fill="#E3000F"/>
<path fill-rule="evenodd" clip-rule="evenodd" d="M21.5041 18.6447L19.5546 17.9321L18.6094 21.6136L21.2678 24.2856L21.5041 18.6447Z" fill="#E3000F"/>
<path fill-rule="evenodd" clip-rule="evenodd" d="M20.8516 30.0452L21.0879 27.1951L25.1641 28.442L25.814 30.1046L20.8516 30.0452Z" fill="#E3000F"/>
<path fill-rule="evenodd" clip-rule="evenodd" d="M14.1187 26.9576L9.39255 24.7606L9.15625 27.5514L11.3421 28.4421L14.1187 26.9576Z" fill="#E3000F"/>
<path fill-rule="evenodd" clip-rule="evenodd" d="M21.6214 10.5694L20.1445 8.90677L24.7525 8.72864L25.6386 10.6287L21.6214 10.5694Z" fill="#E3000F"/>
<path fill-rule="evenodd" clip-rule="evenodd" d="M33.793 10.8068L35.9197 10.0349L37.5148 12.41L34.7973 13.7163L33.793 10.8068Z" fill="#E3000F"/>
<path fill-rule="evenodd" clip-rule="evenodd" d="M25.0506 7.06599L27.7681 5.40341L26.173 3.62207L23.1602 6.35346L25.0506 7.06599Z" fill="#E3000F"/>
<path fill-rule="evenodd" clip-rule="evenodd" d="M20.3828 62.8811L28.6535 60.031L28.5944 43.2271L26.4677 55.1026L20.3828 62.8811Z" fill="#5CB12E"/>
<path fill-rule="evenodd" clip-rule="evenodd" d="M32.67 40.8521L32.3746 49.4025L34.2651 56.3497L28.5938 52.2526L32.67 40.8521Z" fill="#CEDA5B"/>
<path fill-rule="evenodd" clip-rule="evenodd" d="M28.5929 43.2271L37.0999 36.1018L30.0699 30.1046L25.3438 37.2893L28.5929 43.2271Z" fill="#5CB12E"/>
<path fill-rule="evenodd" clip-rule="evenodd" d="M31.134 61.8718L32.6109 61.0405L31.4885 54.3308L28.5938 52.2526L28.6528 60.0311L31.134 61.8718Z" fill="#106220"/>
<path fill-rule="evenodd" clip-rule="evenodd" d="M23.3945 40.377L27.5299 49.1649L28.5932 43.2271L25.344 37.2893L23.3945 40.377Z" fill="#106220"/>
<path fill-rule="evenodd" clip-rule="evenodd" d="M28.5938 43.2272V52.2526L32.67 40.8521L30.6023 41.5052L28.5938 43.2272Z" fill="#106220"/>
</g>
<defs>
<clipPath id="clip0">
<rect width="55" height="63" fill="white"/>
</clipPath>
</defs>
</svg>
