<svg width="39" height="56" viewBox="0 0 39 56" fill="none" xmlns="http://www.w3.org/2000/svg">
<g clip-path="url(#clip0)">
<path fill-rule="evenodd" clip-rule="evenodd" d="M22.9894 15.6326L22.8867 17.5353L26.1196 19.078L30.4301 19.3351L32.842 18.0495L35.8183 17.9981L30.7894 15.067L28.2749 14.8613L25.6578 14.347L22.9894 15.6326Z" fill="#EE7172"/>
<path fill-rule="evenodd" clip-rule="evenodd" d="M32.8433 18.0496L35.8197 17.9982L33.6644 20.4151L29.5078 20.8779L30.4315 19.3352L32.8433 18.0496Z" fill="#D7B46A"/>
<path fill-rule="evenodd" clip-rule="evenodd" d="M22.9884 15.6327L25.6568 14.3472L23.6555 13.5758L19.6016 15.0671L22.9884 15.6327Z" fill="#8E0E02"/>
<path fill-rule="evenodd" clip-rule="evenodd" d="M19.6027 15.067L22.9895 15.6327L22.8869 17.5353L18.3711 19.078L13.4961 17.4325L15.9593 15.067H19.6027Z" fill="#580800"/>
<path fill-rule="evenodd" clip-rule="evenodd" d="M15.9577 15.067H18.4722L15.9577 13.2672L11.3906 14.1414L7.64453 16.764L10.6722 18.8724L13.4945 17.4325L15.9577 15.067Z" fill="#E3000F"/>
<path fill-rule="evenodd" clip-rule="evenodd" d="M7.64416 16.7641L11.3902 14.1415L7.74679 14.3986L3.17969 17.1755L7.64416 16.7641Z" fill="#F9CDC7"/>
<path fill-rule="evenodd" clip-rule="evenodd" d="M7.64572 16.764L10.6734 18.8724L7.69704 20.7751L4.15625 18.821L7.64572 16.764Z" fill="#8E0E02"/>
<path fill-rule="evenodd" clip-rule="evenodd" d="M4.15658 18.821L7.64605 16.764L3.18158 17.1754L0 19.1809L4.15658 18.821Z" fill="#EE7172"/>
<path fill-rule="evenodd" clip-rule="evenodd" d="M4.15658 18.8209L0 19.1809L7.69737 20.775L4.15658 18.8209Z" fill="#E3000F"/>
<path fill-rule="evenodd" clip-rule="evenodd" d="M7.69737 20.775L0 19.1809L0.923684 21.5464L7.69737 20.775Z" fill="#8E0E02"/>
<path fill-rule="evenodd" clip-rule="evenodd" d="M7.69955 20.775L3.54297 21.2378L9.70086 24.2718L14.8838 25.7117L7.69955 20.775Z" fill="#D7B46A"/>
<path fill-rule="evenodd" clip-rule="evenodd" d="M19.0898 17.6382L19.3977 6.94211L19.8596 5.6051L21.1425 6.94211L19.0898 17.6382Z" fill="#106220"/>
<path fill-rule="evenodd" clip-rule="evenodd" d="M10.6716 18.8723L7.69531 20.775L13.6479 22.7291L17.0861 22.2663L18.369 19.078L13.494 17.4325L10.6716 18.8723Z" fill="#EE7172"/>
<path fill-rule="evenodd" clip-rule="evenodd" d="M13.6479 22.7291L17.0861 22.2663L17.3427 26.483L14.8795 25.7117L7.69531 20.775L13.6479 22.7291Z" fill="#FFF7B2"/>
<path fill-rule="evenodd" clip-rule="evenodd" d="M18.3727 19.0781L17.0898 22.2663L24.7359 20.7236L26.1214 19.0781L22.8885 17.5354L18.3727 19.0781Z" fill="#E3000F"/>
<path fill-rule="evenodd" clip-rule="evenodd" d="M16.3719 26.1745L13.293 25.2489L14.3193 27.6658L14.5245 29.0028L16.3719 26.1745Z" fill="#946A25"/>
<path fill-rule="evenodd" clip-rule="evenodd" d="M16.3708 26.1744L17.3458 26.483L19.2958 26.1744L17.1919 33.528L18.3721 43.9669L14.8826 39.0303L14.5234 29.0027L16.3708 26.1744Z" fill="#D7B46A"/>
<path fill-rule="evenodd" clip-rule="evenodd" d="M17.3464 26.483L19.2964 26.1745L20.7846 25.7117L24.7359 20.7236L17.0898 22.2663L17.3464 26.483Z" fill="#C9982E"/>
<path fill-rule="evenodd" clip-rule="evenodd" d="M24.7326 20.7236L20.7812 25.7116L24.9378 25.0431L29.5049 20.8778L30.4286 19.3351L26.1181 19.078L24.7326 20.7236Z" fill="#FFF7B2"/>
<path fill-rule="evenodd" clip-rule="evenodd" d="M20.7833 25.7116L23.9136 25.1974L21.553 29.2598L19.6544 36.6648L17.9609 30.7511L19.2951 26.1744L20.7833 25.7116Z" fill="#946A25"/>
<path fill-rule="evenodd" clip-rule="evenodd" d="M19.6523 36.6648L21.551 29.2599L21.9616 35.3793L23.0392 38.8246L21.4484 43.0413L19.6523 36.6648Z" fill="#C9982E"/>
<path fill-rule="evenodd" clip-rule="evenodd" d="M21.4492 43.0413L23.04 38.8246L26.2216 43.607L21.4492 43.0413Z" fill="#946A25"/>
<path fill-rule="evenodd" clip-rule="evenodd" d="M14.5229 29.0028L14.8821 39.0303L11.444 30.4941L9.69922 24.2719L13.2913 25.2489L14.3176 27.6658L14.5229 29.0028Z" fill="#FFF7B2"/>
<path fill-rule="evenodd" clip-rule="evenodd" d="M14.883 39.0303L11.4448 30.494L10.3672 41.0358L13.9593 42.9385L14.883 39.0303Z" fill="#C9982E"/>
<path fill-rule="evenodd" clip-rule="evenodd" d="M14.8807 39.0303L13.957 42.9384L18.3702 43.9669L14.8807 39.0303Z" fill="#946A25"/>
<path fill-rule="evenodd" clip-rule="evenodd" d="M17.1914 33.528L18.3717 43.9669L21.4506 43.0413L19.6546 36.6648L17.9611 30.7511L17.1914 33.528Z" fill="#FFF7B2"/>
<path fill-rule="evenodd" clip-rule="evenodd" d="M21.4492 43.0414L26.2216 43.607L32.1742 44.3784L27.3505 48.6465L21.4492 43.0414Z" fill="#FFF7B2"/>
<path fill-rule="evenodd" clip-rule="evenodd" d="M27.3516 48.6465L32.1753 44.3783L34.5871 44.1212L34.5358 47.5666L28.2752 54.4573L27.3516 48.6465Z" fill="#E3000F"/>
<path fill-rule="evenodd" clip-rule="evenodd" d="M21.45 43.0414L27.3514 48.6465L21.1421 50.2921L18.3711 43.967L21.45 43.0414Z" fill="#D7B46A"/>
<path fill-rule="evenodd" clip-rule="evenodd" d="M27.3505 48.6465L21.1412 50.292L18.832 54.3545L27.3505 48.6465Z" fill="#8E0E02"/>
<path fill-rule="evenodd" clip-rule="evenodd" d="M18.832 54.3545L27.3505 48.6465L28.2741 54.4573L23.0399 56L18.832 54.3545Z" fill="#EE7172"/>
<path fill-rule="evenodd" clip-rule="evenodd" d="M21.1422 50.292L17.7553 49.0578L12.3672 50.5491L18.3711 43.9669L21.1422 50.292Z" fill="#946A25"/>
<path fill-rule="evenodd" clip-rule="evenodd" d="M18.3713 43.9669L13.9581 42.9385L7.85156 48.595L12.3674 50.5491L18.3713 43.9669Z" fill="#FFF7B2"/>
<path fill-rule="evenodd" clip-rule="evenodd" d="M13.9572 42.9384L10.3651 41.0358L6.15724 44.4811H3.4375L4.97697 46.8466L10.6217 46.0238L13.9572 42.9384Z" fill="#946A25"/>
<path fill-rule="evenodd" clip-rule="evenodd" d="M10.6213 46.0239L4.97656 46.8467L5.64367 48.2351L7.85025 48.5951L10.6213 46.0239Z" fill="#D7B46A"/>
<path fill-rule="evenodd" clip-rule="evenodd" d="M4.97566 46.8467L3.43618 44.4812L0.5625 46.4867L10.4151 55.7943L5.64276 48.2351L4.97566 46.8467Z" fill="#E3000F"/>
<path fill-rule="evenodd" clip-rule="evenodd" d="M5.64453 48.2351L10.4169 55.7943L18.8327 54.3545L12.3669 50.5492L7.85111 48.5951L5.64453 48.2351Z" fill="#8E0E02"/>
<path fill-rule="evenodd" clip-rule="evenodd" d="M21.1422 50.292L17.7553 49.0579L12.3672 50.5491L18.833 54.3545L21.1422 50.292Z" fill="#E3000F"/>
<path fill-rule="evenodd" clip-rule="evenodd" d="M19.707 12.753L19.9636 10.439L22.4268 8.22778L22.9399 8.38205L19.707 12.753Z" fill="#106220"/>
<path fill-rule="evenodd" clip-rule="evenodd" d="M22.4258 8.22768L25.1968 4.62805L28.4297 4.93659L27.7113 9.66754L22.4258 8.22768Z" fill="#AFCA05"/>
<path fill-rule="evenodd" clip-rule="evenodd" d="M27.7109 9.66759L28.4294 4.93665L31.303 8.48485L27.7109 9.66759Z" fill="#106220"/>
<path fill-rule="evenodd" clip-rule="evenodd" d="M28.4282 4.93666L25.1953 4.62812L28.3769 3.13684L34.3808 3.54823L36.1256 5.19377L34.2269 7.81636L31.3019 8.48487L28.4282 4.93666Z" fill="#5CB12E"/>
<path fill-rule="evenodd" clip-rule="evenodd" d="M28.3789 3.13681L32.946 1.7998L38.2829 2.41688L36.1276 5.19374L34.3829 3.5482L28.3789 3.13681Z" fill="#106220"/>
<path fill-rule="evenodd" clip-rule="evenodd" d="M32.9453 1.79982L35.5624 0L39.0006 1.33701L38.2822 2.4169L32.9453 1.79982Z" fill="#5CB12E"/>
<path fill-rule="evenodd" clip-rule="evenodd" d="M19.3964 6.94218L17.3438 6.27368L18.0622 17.1754L19.0885 17.6382L19.3964 6.94218Z" fill="#5CB12E"/>
<path fill-rule="evenodd" clip-rule="evenodd" d="M19.3964 6.94211L17.3438 6.27361L19.8582 5.6051L19.3964 6.94211Z" fill="#AFCA05"/>
</g>
<defs>
<clipPath id="clip0">
<rect width="39" height="56" fill="white"/>
</clipPath>
</defs>
</svg>
