<svg width="54" height="63" viewBox="0 0 54 63" fill="none" xmlns="http://www.w3.org/2000/svg">
<path fill-rule="evenodd" clip-rule="evenodd" d="M46.4215 53.1707L36.2923 61.7466L28.9805 63L34.8836 57.1288L46.4215 53.1707Z" fill="#C9982E"/>
<path fill-rule="evenodd" clip-rule="evenodd" d="M28.9787 63L34.8818 57.1288H19.0508L25.021 63H28.9787Z" fill="#946A25"/>
<path fill-rule="evenodd" clip-rule="evenodd" d="M7.58203 53.1707L18.382 61.7466L25.023 63L19.0528 57.1288L7.58203 53.1707Z" fill="#C9982E"/>
<path fill-rule="evenodd" clip-rule="evenodd" d="M34.8818 57.1288H19.0508V46.3099L27.0334 47.6293L34.8818 46.4419V57.1288Z" fill="#FFF7B2"/>
<path fill-rule="evenodd" clip-rule="evenodd" d="M19.0528 57.1288V46.31L11.3386 44.7927L7.58203 42.9456V53.1707L19.0528 57.1288Z" fill="#946A25"/>
<path fill-rule="evenodd" clip-rule="evenodd" d="M34.8828 46.442L43.2679 44.9247L46.4207 43.0116V53.1708L34.8828 57.1289V46.442Z" fill="#D7B46A"/>
<path fill-rule="evenodd" clip-rule="evenodd" d="M46.418 43.0115V53.1707L51.8515 48.355L51.7173 39.5812L46.418 43.0115Z" fill="#946A25"/>
<path fill-rule="evenodd" clip-rule="evenodd" d="M7.57875 53.1707V42.9455L2.07812 39.3173V48.223L7.57875 53.1707Z" fill="#C9982E"/>
<path fill-rule="evenodd" clip-rule="evenodd" d="M0 31.9288V37.6021L2.0795 39.3173L7.58012 42.9456L11.3366 44.7927L11.2696 39.5812L0 31.9288Z" fill="#946A25"/>
<path fill-rule="evenodd" clip-rule="evenodd" d="M11.3366 44.7927L11.2695 39.5812L26.9664 42.8796L27.0335 47.6293L19.0509 46.31L11.3366 44.7927Z" fill="#D7B46A"/>
<path fill-rule="evenodd" clip-rule="evenodd" d="M27.0358 47.6294L26.9688 42.8796L43.2694 40.5048V44.9247L34.8843 46.4419L27.0358 47.6294Z" fill="#946A25"/>
<path fill-rule="evenodd" clip-rule="evenodd" d="M11.2696 39.5811L0 31.9288L1.34161 30.2795L12.6783 38.3277L11.2696 39.5811Z" fill="#C9982E"/>
<path fill-rule="evenodd" clip-rule="evenodd" d="M11.2695 39.5812L12.6782 38.3278L26.9664 40.9005V42.8796L11.2695 39.5812Z" fill="#946A25"/>
<path fill-rule="evenodd" clip-rule="evenodd" d="M26.9688 42.8795V40.9004L41.2569 38.9214L43.2694 40.5046L26.9688 42.8795Z" fill="#FFF7B2"/>
<path fill-rule="evenodd" clip-rule="evenodd" d="M43.2663 40.5047L41.2539 38.9214L51.8527 32.5225L53.9322 33.446L43.2663 40.5047Z" fill="#D7B46A"/>
<path fill-rule="evenodd" clip-rule="evenodd" d="M43.2656 40.5047L53.9315 33.446L53.9985 38.1298L51.7178 39.5811L43.2656 44.9246V40.5047Z" fill="#FFF7B2"/>
<path fill-rule="evenodd" clip-rule="evenodd" d="M4.22499 32.2587L1.34052 30.2796L1.27344 14.2493L4.22499 15.6346V32.2587Z" fill="#946A25"/>
<path fill-rule="evenodd" clip-rule="evenodd" d="M1.27344 14.2492L4.22499 15.6346L16.9032 3.10052L15.4946 0L1.27344 14.2492Z" fill="#FFF7B2"/>
<path fill-rule="evenodd" clip-rule="evenodd" d="M48.832 34.3037L51.8507 32.5225V14.1173L48.832 15.7665V34.3037Z" fill="#946A25"/>
<path fill-rule="evenodd" clip-rule="evenodd" d="M48.834 15.7665L51.8526 14.1173L37.4302 0L35.8203 3.23246L48.834 15.7665Z" fill="#C9982E"/>
<path fill-rule="evenodd" clip-rule="evenodd" d="M35.8216 3.23246L37.4315 0H15.4961L16.9048 3.10052L35.8216 3.23246Z" fill="#D7B46A"/>
<path fill-rule="evenodd" clip-rule="evenodd" d="M19.7886 39.5811L14.4222 38.5916L13.6172 33.578L19.5874 36.7445L19.7886 39.5811Z" fill="#EE7172"/>
<path fill-rule="evenodd" clip-rule="evenodd" d="M19.7911 39.5812L19.5898 36.7445L28.2433 36.9424L26.9687 40.9005L19.7911 39.5812Z" fill="#8E0E02"/>
<path fill-rule="evenodd" clip-rule="evenodd" d="M26.9688 40.9005L28.2433 36.9424L28.7128 36.0188L33.9451 37.8659L31.2619 40.3068L26.9688 40.9005Z" fill="#E3000F"/>
<path fill-rule="evenodd" clip-rule="evenodd" d="M33.9432 37.8659L28.7109 36.0188L34.614 29.9497L33.9432 37.8659Z" fill="#EE7172"/>
<path fill-rule="evenodd" clip-rule="evenodd" d="M33.9414 37.8659L34.6122 29.9497L36.8259 34.8314L33.9414 37.8659Z" fill="#E3000F"/>
<path fill-rule="evenodd" clip-rule="evenodd" d="M34.0117 37.8L36.8291 34.8314L37.0974 35.5571L35.9571 39.6471L34.0117 37.8Z" fill="#F9CDC7"/>
<path fill-rule="evenodd" clip-rule="evenodd" d="M31.2578 40.3067L34.0081 37.7999L35.9535 39.647L31.2578 40.3067Z" fill="#5F0E00"/>
<path fill-rule="evenodd" clip-rule="evenodd" d="M28.2399 36.9423L28.7095 36.0188L29.5815 29.224L27.3008 31.401L28.2399 36.9423Z" fill="#7F160E"/>
<path fill-rule="evenodd" clip-rule="evenodd" d="M28.7109 36.0188L29.583 29.224L34.614 29.9497L28.7109 36.0188Z" fill="#E3000F"/>
<path fill-rule="evenodd" clip-rule="evenodd" d="M34.6122 29.9498L29.5811 29.2241L26.5625 26.8493L29.6482 26.5194L34.6122 29.9498Z" fill="#F9CDC7"/>
<path fill-rule="evenodd" clip-rule="evenodd" d="M29.5822 29.2241L26.5635 26.8492L25.6244 27.245L24.0816 26.3875L19.8555 28.1026L21.3983 30.9393L25.6244 30.2136L27.3014 31.4011L29.5822 29.2241Z" fill="#5F0E00"/>
<path fill-rule="evenodd" clip-rule="evenodd" d="M19.8544 28.1026L24.0805 26.3874L22.5376 25.9257L19.1836 26.9152L19.8544 28.1026Z" fill="white"/>
<path fill-rule="evenodd" clip-rule="evenodd" d="M13.6172 33.578L21.3986 30.9392L19.5874 36.7444L13.6172 33.578Z" fill="#E3000F"/>
<path fill-rule="evenodd" clip-rule="evenodd" d="M21.3986 30.9392L19.1849 26.9152L13.6172 33.578L21.3986 30.9392Z" fill="#F9CDC7"/>
<path fill-rule="evenodd" clip-rule="evenodd" d="M24.3516 29.1581L27.4373 23.5508L29.3826 24.0126L24.3516 29.1581Z" fill="#F9CDC7"/>
<path fill-rule="evenodd" clip-rule="evenodd" d="M23.6133 28.8943L24.3512 29.1581L27.4369 23.5508L26.6319 23.3529L23.6133 28.8943Z" fill="#E3000F"/>
<path fill-rule="evenodd" clip-rule="evenodd" d="M14.4198 38.5916L13.816 34.7655L11.1328 32.5885L11.8707 37.734L12.6757 38.3278L14.4198 38.5916Z" fill="#325F18"/>
<path fill-rule="evenodd" clip-rule="evenodd" d="M11.8729 37.734L11.135 32.5885L6.64062 28.9602L7.71392 34.7654L11.8729 37.734Z" fill="#CEDA5B"/>
<path fill-rule="evenodd" clip-rule="evenodd" d="M6.64147 28.9602L7.71476 34.7654L5.23277 32.9843L4.22656 27.3769L6.03774 25.7937L6.64147 28.9602Z" fill="#5CB12E"/>
<path fill-rule="evenodd" clip-rule="evenodd" d="M6.64279 28.9602L6.03906 25.7937L11.4055 22.2974L6.64279 28.9602Z" fill="#AFCA05"/>
<path fill-rule="evenodd" clip-rule="evenodd" d="M4.22656 27.3769L6.03774 25.7936L6.44023 19.6586L4.22656 27.3769Z" fill="#CEDA5B"/>
<path fill-rule="evenodd" clip-rule="evenodd" d="M6.03906 25.7937L6.44155 19.6586L10.3322 16.8879L11.4055 22.2974L6.03906 25.7937Z" fill="#325F18"/>
<path fill-rule="evenodd" clip-rule="evenodd" d="M11.4053 22.2974L10.332 16.8879L16.2351 15.7665L16.3022 19.9225L11.4053 22.2974Z" fill="#5CB12E"/>
<path fill-rule="evenodd" clip-rule="evenodd" d="M11.4023 22.2974L16.2992 19.9225L19.3179 21.7696L19.1837 26.9152L11.4023 22.2974Z" fill="white"/>
<path fill-rule="evenodd" clip-rule="evenodd" d="M11.4034 22.2974L19.1847 26.9152L18.3798 27.9047L11.135 32.5885L6.64062 28.9602L11.4034 22.2974Z" fill="#325F18"/>
<path fill-rule="evenodd" clip-rule="evenodd" d="M19.1836 26.9152L19.3178 21.7697L22.5376 25.9257L19.1836 26.9152Z" fill="#106220"/>
<path fill-rule="evenodd" clip-rule="evenodd" d="M22.5402 25.9257L19.3203 21.7696L22.9427 19.7246L27.1688 20.7801L22.5402 25.9257Z" fill="#5CB12E"/>
<path fill-rule="evenodd" clip-rule="evenodd" d="M22.5391 25.9257L27.1676 20.7802L28.7776 23.8807L26.631 23.3529L24.7527 26.7833L24.0819 26.3875L22.5391 25.9257Z" fill="#106220"/>
<path fill-rule="evenodd" clip-rule="evenodd" d="M22.9418 19.7247L27.1679 20.7802L25.2226 18.8011L21.7344 17.8776L22.9418 19.7247Z" fill="#9BC42A"/>
<path fill-rule="evenodd" clip-rule="evenodd" d="M21.735 17.8775L20.5946 16.6241L16.2344 15.7665L16.3015 19.9225L19.3201 21.7696L22.9425 19.7246L21.735 17.8775Z" fill="#106220"/>
<path fill-rule="evenodd" clip-rule="evenodd" d="M19.12 19.0649L18.4492 18.7351L23.212 11.4785L24.4194 11.9403L19.12 19.0649Z" fill="#5CB12E"/>
<path fill-rule="evenodd" clip-rule="evenodd" d="M19.1172 19.0649L24.4166 11.9403L25.0874 13.5236L19.1172 19.0649Z" fill="#106220"/>
<path fill-rule="evenodd" clip-rule="evenodd" d="M29.6499 26.5193L29.1133 26.5853L31.3269 22.6272L33.071 25.4638L30.6561 27.245L29.6499 26.5193Z" fill="#106220"/>
<path fill-rule="evenodd" clip-rule="evenodd" d="M30.6562 27.245L33.0712 25.4638L39.6451 24.2764L39.9805 30.8073H35.0165L34.614 29.9497L30.6562 27.245Z" fill="#CEDA5B"/>
<path fill-rule="evenodd" clip-rule="evenodd" d="M35.957 39.6471L36.6278 37.2723L42.8663 34.3696L39.7136 39.1194L35.957 39.6471Z" fill="#106220"/>
<path fill-rule="evenodd" clip-rule="evenodd" d="M36.6256 37.2723L42.8641 34.3697L39.9796 30.8074H35.0156L36.8268 34.8315L37.0951 35.5571L36.6256 37.2723Z" fill="#5CB12E"/>
<path fill-rule="evenodd" clip-rule="evenodd" d="M39.9805 30.8073L42.8649 34.3696L43.4016 26.1235L39.9805 30.8073Z" fill="#325F18"/>
<path fill-rule="evenodd" clip-rule="evenodd" d="M39.9799 30.8073L39.6445 24.2764L43.4011 26.1235L39.9799 30.8073Z" fill="white"/>
<path fill-rule="evenodd" clip-rule="evenodd" d="M42.8672 34.3696L43.4038 26.1235L48.8374 29.4879L42.8672 34.3696Z" fill="#CEDA5B"/>
<path fill-rule="evenodd" clip-rule="evenodd" d="M42.8637 34.3696L47.7606 34.9633L41.2538 38.9215L39.7109 39.1194L42.8637 34.3696Z" fill="#5CB12E"/>
<path fill-rule="evenodd" clip-rule="evenodd" d="M43.4023 26.1235L48.8359 29.4879L47.6955 25.134L45.5489 22.2974L43.4023 26.1235Z" fill="#106220"/>
<path fill-rule="evenodd" clip-rule="evenodd" d="M43.4011 26.1235L45.5476 22.2973L40.7849 19.9884L39.6445 24.2764L43.4011 26.1235Z" fill="#5CB12E"/>
<path fill-rule="evenodd" clip-rule="evenodd" d="M39.6444 24.2764L40.7848 19.9884L38.1016 19.6586L36.1562 21.3078L39.6444 24.2764Z" fill="#CEDA5B"/>
<path fill-rule="evenodd" clip-rule="evenodd" d="M36.156 21.3079L33.0703 25.4639L39.6442 24.2764L36.156 21.3079Z" fill="#106220"/>
<path fill-rule="evenodd" clip-rule="evenodd" d="M33.0722 25.4639L31.3281 22.6272L36.1579 21.3079L33.0722 25.4639Z" fill="#5CB12E"/>
<path fill-rule="evenodd" clip-rule="evenodd" d="M33.0703 18.1414L36.0219 23.6168L36.3573 23.5508L34.6132 17.8115L33.0703 18.1414Z" fill="#AFCA05"/>
<path fill-rule="evenodd" clip-rule="evenodd" d="M36.3574 23.5508L34.6133 17.8115L35.9549 17.9435L36.3574 23.5508Z" fill="#106220"/>
<path fill-rule="evenodd" clip-rule="evenodd" d="M28.2433 36.9424L19.5898 36.7445L21.401 30.9393L25.6271 30.2136L27.3041 31.4011L28.2433 36.9424Z" fill="#F9CDC7"/>
<path fill-rule="evenodd" clip-rule="evenodd" d="M18.3775 27.9047L13.6148 33.578L13.816 34.7654L11.1328 32.5884L18.3775 27.9047Z" fill="#49AD32"/>
<path fill-rule="evenodd" clip-rule="evenodd" d="M26.6328 26.8492L28.9136 24.5403L29.1148 26.5853L26.6328 26.8492Z" fill="#106220"/>
<path fill-rule="evenodd" clip-rule="evenodd" d="M48.8374 29.4879L42.8672 34.3696L47.7641 34.9633L48.8374 29.4879Z" fill="#106220"/>
<path fill-rule="evenodd" clip-rule="evenodd" d="M23.0093 15.4366L22.4727 16.0304L26.0279 15.8325L26.1621 15.5686L23.0093 15.4366Z" fill="#106220"/>
<path fill-rule="evenodd" clip-rule="evenodd" d="M28.5764 15.8985L26.0273 15.8325L28.1739 17.0859L31.9975 16.2943L28.5764 15.8985Z" fill="#5CB12E"/>
<path fill-rule="evenodd" clip-rule="evenodd" d="M26.0273 15.8324L28.5764 15.8984L29.6497 14.3811L27.3019 13.0618L26.0273 15.8324Z" fill="#AFCA05"/>
<path fill-rule="evenodd" clip-rule="evenodd" d="M27.3008 13.0618L29.6486 14.3812L29.112 11.8744L27.3008 13.0618Z" fill="#106220"/>
<path fill-rule="evenodd" clip-rule="evenodd" d="M29.6514 14.3811L28.5781 15.8984L30.3893 15.0408L32.4017 12.2701L32.2676 10.9507L30.4564 10.8848L29.1148 11.8743L29.6514 14.3811Z" fill="#5CB12E"/>
<path fill-rule="evenodd" clip-rule="evenodd" d="M28.5781 15.8984L30.3893 15.0408L32.6701 13.5235L34.4142 13.0618L31.9992 16.2942L28.5781 15.8984Z" fill="#D7E294"/>
<path fill-rule="evenodd" clip-rule="evenodd" d="M30.3867 15.0409L32.6675 13.5236L34.2774 11.0168L32.265 10.9508L32.3991 12.2702L30.3867 15.0409Z" fill="#106220"/>
<path fill-rule="evenodd" clip-rule="evenodd" d="M32.668 13.5235L34.4121 13.0618L35.0158 11.0827L34.2779 11.0167L32.668 13.5235Z" fill="#5CB12E"/>
</svg>
