<svg width="56" height="46" viewBox="0 0 56 46" fill="none" xmlns="http://www.w3.org/2000/svg">
<g clip-path="url(#clip0)">
<path fill-rule="evenodd" clip-rule="evenodd" d="M38.5352 29.5248L38.5889 22.4563L56.0016 15.3877V21.695L38.5352 29.5248Z" fill="#D7B46A"/>
<path fill-rule="evenodd" clip-rule="evenodd" d="M38.5352 37.6265L38.5889 30.6123L56.0016 22.9457V29.253L38.5352 37.6265Z" fill="#C9982E"/>
<path fill-rule="evenodd" clip-rule="evenodd" d="M38.5352 46L38.5889 38.9858L56.0016 30.3948V36.7565L38.5352 46Z" fill="#946A25"/>
<path fill-rule="evenodd" clip-rule="evenodd" d="M38.5336 29.5248L38.5873 22.4563L0 15.3877V21.695L38.5336 29.5248Z" fill="#C9982E"/>
<path fill-rule="evenodd" clip-rule="evenodd" d="M38.5336 37.6265L38.5873 30.6123L0 22.9457V29.253L38.5336 37.6265Z" fill="#946A25"/>
<path fill-rule="evenodd" clip-rule="evenodd" d="M38.5336 46L38.5873 38.9858L0 30.3948V36.7565L38.5336 46Z" fill="#714E1E"/>
<path fill-rule="evenodd" clip-rule="evenodd" d="M38.586 30.6123L0.589844 23.0544V21.8038L38.5323 29.5249L38.586 30.6123Z" fill="#714E1E"/>
<path fill-rule="evenodd" clip-rule="evenodd" d="M38.586 38.9858L0.589844 30.5579V29.3617L38.5323 37.6265L38.586 38.9858Z" fill="#543A18"/>
<path fill-rule="evenodd" clip-rule="evenodd" d="M38.5889 30.6123L55.3567 23.2175L55.4104 21.9669L38.5352 29.5248L38.5889 30.6123Z" fill="#946A25"/>
<path fill-rule="evenodd" clip-rule="evenodd" d="M38.5889 38.9858L55.4641 30.6666V29.5248L38.5352 37.6264L38.5889 38.9858Z" fill="#714E1E"/>
<path fill-rule="evenodd" clip-rule="evenodd" d="M41.9727 21.097L44.7673 19.9551L46.4871 16.584L46.6483 15.3334L42.7788 19.3026L41.9727 21.097Z" fill="#E3000F"/>
<path fill-rule="evenodd" clip-rule="evenodd" d="M41.9738 21.0969L42.7799 19.3026L38.4805 21.1513L38.588 22.4563L41.9738 21.0969Z" fill="#8E0E02"/>
<path fill-rule="evenodd" clip-rule="evenodd" d="M38.5857 22.4562L38.4782 21.1513L34.125 19.8463L35.1461 21.8038L38.5857 22.4562Z" fill="#5F0E00"/>
<path fill-rule="evenodd" clip-rule="evenodd" d="M35.1485 21.8037L34.1274 19.8463L29.9354 18.1607L28.4844 16.2032L28.9681 19.1394L30.5266 20.9881L35.1485 21.8037Z" fill="#E3000F"/>
<path fill-rule="evenodd" clip-rule="evenodd" d="M29.9354 18.1607L34.1274 19.8463L33.5362 17.3451L29.3443 14.8439L29.2368 13.5389L28.4844 16.2032L29.9354 18.1607Z" fill="#8E0E02"/>
<path fill-rule="evenodd" clip-rule="evenodd" d="M34.1263 19.8463L33.5352 17.3452L37.1359 16.8558L41.2741 15.4965L42.7789 19.3026L38.4795 21.1513L34.1263 19.8463Z" fill="#EE7172"/>
<path fill-rule="evenodd" clip-rule="evenodd" d="M42.7782 19.3026L41.2734 15.4965L44.1755 11.2554L44.6055 10.0048L46.0028 11.9622L45.8416 16.149L42.7782 19.3026Z" fill="#F9CDC7"/>
<path fill-rule="evenodd" clip-rule="evenodd" d="M45.8438 16.1489L46.005 11.9622L46.6499 15.3333L45.8438 16.1489Z" fill="#8E0E02"/>
<path fill-rule="evenodd" clip-rule="evenodd" d="M44.1772 11.2553L44.6071 10.0047L43.0486 8.31909L41.8125 9.13469L42.1887 11.4728L43.2636 12.5602L44.1772 11.2553Z" fill="#E3000F"/>
<path fill-rule="evenodd" clip-rule="evenodd" d="M43.2635 12.5602L42.1886 11.4728L38.6953 11.0922L41.1675 13.4302L41.275 15.4964L43.2635 12.5602Z" fill="white"/>
<path fill-rule="evenodd" clip-rule="evenodd" d="M41.1657 13.4302L38.6935 11.0922L37.4037 12.1796L35.6302 12.1253L33.4805 13.4846L33.5342 17.3451L37.135 16.8558L41.2732 15.4964L41.1657 13.4302Z" fill="#E3000F"/>
<path fill-rule="evenodd" clip-rule="evenodd" d="M33.5357 17.3451L33.4819 13.4846L29.3438 14.844L33.5357 17.3451Z" fill="#F9CDC7"/>
<path fill-rule="evenodd" clip-rule="evenodd" d="M29.3438 14.8439L33.4819 13.4846L31.5472 11.6359L29.3438 14.8439Z" fill="#E3000F"/>
<path fill-rule="evenodd" clip-rule="evenodd" d="M29.3458 14.844L31.5492 11.6359L33.8064 10.2766L32.839 8.37354L30.1519 10.5485L29.2383 13.539L29.3458 14.844Z" fill="#EE7172"/>
<path fill-rule="evenodd" clip-rule="evenodd" d="M33.8033 10.2766L32.8359 8.37353L33.5346 7.99292L35.7381 8.86289L39.2851 6.85107L37.8878 9.13476L36.4905 10.2766L35.2544 9.6785L33.8033 10.2766Z" fill="#E3000F"/>
<path fill-rule="evenodd" clip-rule="evenodd" d="M36.4912 10.2766L37.8885 9.13477L39.2321 10.0047L38.6947 11.0922L37.4048 12.1797L35.6313 12.1253L33.4816 13.4846L31.5469 11.6359L33.8041 10.2766L35.2551 9.6785L36.4912 10.2766Z" fill="#5F0E00"/>
<path fill-rule="evenodd" clip-rule="evenodd" d="M37.8906 9.13476L39.2879 6.85107L43.0499 8.31916L41.8138 9.13476L42.19 11.4728L38.6968 11.0922L39.2342 10.0047L37.8906 9.13476Z" fill="#EE7172"/>
<path fill-rule="evenodd" clip-rule="evenodd" d="M35.7912 11.2553L35.4688 11.1465L36.4361 3.31675L37.8872 3.20801L35.7912 11.2553Z" fill="#ACCC58"/>
<path fill-rule="evenodd" clip-rule="evenodd" d="M35.793 11.2553L37.8889 3.20801L38.5339 3.91486L35.793 11.2553Z" fill="#106220"/>
<path fill-rule="evenodd" clip-rule="evenodd" d="M43.638 8.97169L43.0469 8.31921L44.1755 7.39486L45.1966 7.17737L46.8089 7.50361L45.3578 8.7542L43.638 8.97169Z" fill="#5CB12E"/>
<path fill-rule="evenodd" clip-rule="evenodd" d="M45.3604 8.75415L46.0591 9.29789L47.5101 10.9835L46.2203 13.104L46.0053 11.9622L44.608 10.0047L43.6406 8.97164L45.3604 8.75415Z" fill="#106220"/>
<path fill-rule="evenodd" clip-rule="evenodd" d="M46.2188 13.1041L49.4433 14.4091L47.5086 10.9835L46.2188 13.1041Z" fill="#5CB12E"/>
<path fill-rule="evenodd" clip-rule="evenodd" d="M46.2167 13.104L49.4412 14.409L49.6025 17.0733L49.1188 18.1607L44.7656 19.9551L46.4854 16.5839L46.6466 15.3333L46.2167 13.104Z" fill="#106220"/>
<path fill-rule="evenodd" clip-rule="evenodd" d="M46.0586 9.29783L47.5097 10.9834L50.3043 10.0591L50.0893 8.69972L48.5308 7.66663L47.8859 7.99287L46.0586 9.29783Z" fill="#0D4117"/>
<path fill-rule="evenodd" clip-rule="evenodd" d="M45.3594 8.75413L46.8104 7.50354L47.8853 7.9929L46.058 9.29787L45.3594 8.75413Z" fill="#CEDA5B"/>
<path fill-rule="evenodd" clip-rule="evenodd" d="M50.0885 8.69983L49.1211 8.04735L51.2708 7.9386L51.7007 8.53671L51.432 10.6029L50.3034 10.0592L50.0885 8.69983Z" fill="#5CB12E"/>
<path fill-rule="evenodd" clip-rule="evenodd" d="M50.3024 10.0591L51.431 10.6028L49.4426 14.409L47.5078 10.9834L50.3024 10.0591Z" fill="#AFCA05"/>
<path fill-rule="evenodd" clip-rule="evenodd" d="M49.6048 17.0733L49.4435 14.409L50.0885 13.2128L54.2804 13.5934L53.4743 15.6052L51.862 17.0733L49.1211 18.1608L49.6048 17.0733Z" fill="#5CB12E"/>
<path fill-rule="evenodd" clip-rule="evenodd" d="M50.0898 13.2127L54.2818 13.5934L54.0131 11.0922L53.4756 9.67847L51.7021 8.53662L51.4334 10.6028L50.0898 13.2127Z" fill="#106220"/>
<path fill-rule="evenodd" clip-rule="evenodd" d="M48.2081 9.08044L48.0469 8.59108L50.519 5.81803L52.5075 4.89368L53.2062 5.98115L50.6803 6.57926L48.2081 9.08044Z" fill="#5CB12E"/>
<path fill-rule="evenodd" clip-rule="evenodd" d="M50.6792 6.57919L53.2051 5.98108L52.6139 7.12292L50.9479 7.06855L48.207 9.08037L50.6792 6.57919Z" fill="#325F18"/>
<path fill-rule="evenodd" clip-rule="evenodd" d="M53.4756 15.6052L53.6368 15.1702L56.0015 15.3877L51.8633 17.0732L53.4756 15.6052Z" fill="#714E1E"/>
<path fill-rule="evenodd" clip-rule="evenodd" d="M0 15.3878L3.65451 14.6809L3.11708 15.9315L0 15.3878Z" fill="#714E1E"/>
<path fill-rule="evenodd" clip-rule="evenodd" d="M28.9656 19.1394L28.8581 18.4869L24.3438 19.8463L28.9656 20.7163V19.1394Z" fill="#106220"/>
<path fill-rule="evenodd" clip-rule="evenodd" d="M24.3438 19.8464L28.8581 18.487L26.0635 16.3665L24.4512 17.6714L24.3438 19.8464Z" fill="#ACCC58"/>
<path fill-rule="evenodd" clip-rule="evenodd" d="M28.861 18.487L26.0664 16.3664L26.3351 14.8439L26.8188 14.1371L28.4848 16.2033L28.861 18.487Z" fill="#106220"/>
<path fill-rule="evenodd" clip-rule="evenodd" d="M26.3353 14.8439L26.819 14.1371L24.0781 14.2458L26.0666 16.3664L26.3353 14.8439Z" fill="#5CB12E"/>
<path fill-rule="evenodd" clip-rule="evenodd" d="M26.0657 16.3664L24.0772 14.2458L20.6914 14.8983L20.9064 16.2577L24.5609 17.5626L26.0657 16.3664Z" fill="#0D4117"/>
<path fill-rule="evenodd" clip-rule="evenodd" d="M20.6887 14.8983L24.0745 14.2459L23.0534 12.9409L19.4526 12.8322L16.9805 13.974L19.8288 14.0827L20.6887 14.8983Z" fill="#5CB12E"/>
<path fill-rule="evenodd" clip-rule="evenodd" d="M20.6887 14.8983L20.9037 16.2577L18.2703 16.5296L16.9805 13.974L19.8288 14.0827L20.6887 14.8983Z" fill="#106220"/>
<path fill-rule="evenodd" clip-rule="evenodd" d="M20.9068 16.2577L18.2734 16.5296L18.4884 18.7589L24.3464 19.8463L24.5613 17.5627L20.9068 16.2577Z" fill="#5CB12E"/>
<path fill-rule="evenodd" clip-rule="evenodd" d="M18.274 16.5296L16.9841 13.974L14.8882 16.0402L14.082 17.9433L18.4889 18.7589L18.274 16.5296Z" fill="#CEDA5B"/>
<path fill-rule="evenodd" clip-rule="evenodd" d="M16.985 13.974L19.0809 12.9953L17.4149 10.8203L16.8775 10.4397L15.3727 14.3002L14.3516 15.1702L14.889 16.0402L16.985 13.974Z" fill="#F9CDC7"/>
<path fill-rule="evenodd" clip-rule="evenodd" d="M14.8861 16.0401L14.3487 15.1702L9.29688 17.0732L14.08 17.9432L14.8861 16.0401Z" fill="#E3000F"/>
<path fill-rule="evenodd" clip-rule="evenodd" d="M10.8556 16.5295L14.3489 15.1702L10.6406 14.0283L10.8556 16.5295Z" fill="white"/>
<path fill-rule="evenodd" clip-rule="evenodd" d="M10.8539 16.5295L10.6389 14.0283L7.46808 12.9952L4.08229 13.9196L3.65234 14.6808L9.29534 17.0733L10.8539 16.5295Z" fill="#EE7172"/>
<path fill-rule="evenodd" clip-rule="evenodd" d="M3.65462 14.6809L3.11719 15.9315L9.29761 17.0733L3.65462 14.6809Z" fill="#8E0E02"/>
<path fill-rule="evenodd" clip-rule="evenodd" d="M10.536 13.9739L7.47266 12.9952L9.24617 11.0921L10.321 10.494L12.1483 10.6028L13.3306 11.6359L11.3959 12.0165L10.536 13.9739Z" fill="#5F0E00"/>
<path fill-rule="evenodd" clip-rule="evenodd" d="M11.3911 12.0165L13.3259 11.6359L16.8729 10.4397L15.3681 14.3002L14.347 15.1702L10.5312 13.974L11.3911 12.0165Z" fill="#8E0E02"/>
<path fill-rule="evenodd" clip-rule="evenodd" d="M13.3299 11.6359L16.8769 10.4397L13.4374 9.13477H11.9326L10.3203 10.4941L12.1476 10.6029L13.3299 11.6359Z" fill="#E3000F"/>
<path fill-rule="evenodd" clip-rule="evenodd" d="M7.46783 12.9953L9.24134 11.0922L6.39297 11.0378L4.35075 12.669L4.08203 13.9196L7.46783 12.9953Z" fill="#E3000F"/>
<path fill-rule="evenodd" clip-rule="evenodd" d="M9.08254 7.23169L8.22266 7.8298L9.83494 12.8865L10.1037 12.5603L9.08254 7.23169Z" fill="#ACCC58"/>
<path fill-rule="evenodd" clip-rule="evenodd" d="M9.08203 7.23169L10.1031 12.5603L9.72695 7.50356L9.08203 7.23169Z" fill="#106220"/>
<path fill-rule="evenodd" clip-rule="evenodd" d="M16.8736 10.4397L15.9062 10.0591L16.2287 6.36169L20.9581 6.90543L17.411 10.8203L16.8736 10.4397Z" fill="#8E0E02"/>
<path fill-rule="evenodd" clip-rule="evenodd" d="M17.4141 10.8204L20.9611 6.90552L23.0571 8.80859L22.1972 12.8866L19.4563 12.8322L19.0801 12.9954L17.4141 10.8204Z" fill="#E3000F"/>
<path fill-rule="evenodd" clip-rule="evenodd" d="M22.1953 12.8866L23.0552 8.80859L28.3757 8.91734L29.6118 12.2341L26.7635 14.3003L24.0763 14.2459L23.0552 12.941L22.1953 12.8866Z" fill="#F9CDC7"/>
<path fill-rule="evenodd" clip-rule="evenodd" d="M29.6111 12.2341L28.375 8.91729L29.0737 8.4823L31.4921 9.46102L30.1485 10.5485L29.6111 12.2341Z" fill="#8E0E02"/>
<path fill-rule="evenodd" clip-rule="evenodd" d="M31.4926 9.46104L29.0742 8.48231L32.9974 5.16553L34.1798 8.26482L33.5349 7.99295L32.8362 8.37356L31.4926 9.46104Z" fill="#E3000F"/>
<path fill-rule="evenodd" clip-rule="evenodd" d="M30.04 5.54607L32.9958 5.16545L30.8998 3.58862L28.5352 3.80612L30.04 5.54607Z" fill="#F9CDC7"/>
<path fill-rule="evenodd" clip-rule="evenodd" d="M32.9969 5.16553L30.041 5.54614L28.7512 6.47049L28.375 8.9173L29.0737 8.48231L32.9969 5.16553Z" fill="#EE7172"/>
<path fill-rule="evenodd" clip-rule="evenodd" d="M28.3752 8.91727L28.7514 6.47046L25.5269 6.68795L23.0547 8.80852L28.3752 8.91727Z" fill="white"/>
<path fill-rule="evenodd" clip-rule="evenodd" d="M23.0569 8.80853L25.5291 6.68796L24.1855 4.02366L21.7671 2.01184L20.9609 6.90546L23.0569 8.80853Z" fill="#EE7172"/>
<path fill-rule="evenodd" clip-rule="evenodd" d="M20.9598 6.90546L21.766 2.01184L16.9829 5.11113L16.2305 6.36172L20.9598 6.90546Z" fill="#F9CDC7"/>
<path fill-rule="evenodd" clip-rule="evenodd" d="M24.1841 4.02363L21.7656 2.01181L25.2052 1.79431L28.5372 3.80613L24.1841 4.02363Z" fill="#E3000F"/>
<path fill-rule="evenodd" clip-rule="evenodd" d="M28.5368 3.80615L24.1836 4.02365L25.5272 6.68795L28.7517 6.47045L30.0416 5.5461L28.5368 3.80615Z" fill="#5F0E00"/>
<path fill-rule="evenodd" clip-rule="evenodd" d="M27.5168 5.49173L27.1406 5.21986L29.5591 0L30.3652 0.706856L27.5168 5.49173Z" fill="#106220"/>
<path fill-rule="evenodd" clip-rule="evenodd" d="M27.1406 5.21986L29.559 0L28.2692 0.434988L27.1406 5.21986Z" fill="#5CB12E"/>
<path fill-rule="evenodd" clip-rule="evenodd" d="M49.4433 14.409L49.6045 17.0733L46.4875 16.5839L46.6487 15.3333L46.2188 13.104L49.4433 14.409Z" fill="#CEDA5B"/>
<path fill-rule="evenodd" clip-rule="evenodd" d="M23.0548 16.0946L22.8398 15.5509L23.5385 11.0922L24.4521 10.766L23.0548 16.0946Z" fill="#96AE10"/>
<path fill-rule="evenodd" clip-rule="evenodd" d="M23.0547 16.0946L25.0969 11.5272L24.452 10.766L23.0547 16.0946Z" fill="#106220"/>
<path fill-rule="evenodd" clip-rule="evenodd" d="M28.9688 20.7164V19.1395L30.5273 20.9882L28.9688 20.7164Z" fill="#714E1E"/>
<path fill-rule="evenodd" clip-rule="evenodd" d="M9.88968 9.78721L9.83594 8.75411L10.2121 7.39478H10.4809L9.88968 9.78721Z" fill="#106220"/>
<path fill-rule="evenodd" clip-rule="evenodd" d="M10.8561 5.27425L10.2112 7.39482L9.78125 5.32863L11.3398 2.39246L10.8561 5.27425Z" fill="#5CB12E"/>
<path fill-rule="evenodd" clip-rule="evenodd" d="M10.2109 7.39472L10.8559 5.27415L12.3606 4.78479L12.8981 7.12285L10.2109 7.39472Z" fill="#AFCA05"/>
<path fill-rule="evenodd" clip-rule="evenodd" d="M12.8968 7.12285L12.3594 4.78479L14.2941 5.87226L12.8968 7.12285Z" fill="#106220"/>
<path fill-rule="evenodd" clip-rule="evenodd" d="M12.3603 4.78494L10.8555 5.27431L11.9841 4.02372L14.7787 3.09937L15.8535 3.53435L15.4773 5.05681L14.295 5.87242L12.3603 4.78494Z" fill="#5CB12E"/>
<path fill-rule="evenodd" clip-rule="evenodd" d="M10.8555 5.27425L11.9841 4.02366L13.8113 2.55557L14.6712 1.25061L11.3392 2.39245L10.8555 5.27425Z" fill="#D7E294"/>
<path fill-rule="evenodd" clip-rule="evenodd" d="M11.9844 4.02357L13.8116 2.55549L16.3375 1.84863L15.8539 3.53421L14.779 3.09922L11.9844 4.02357Z" fill="#106220"/>
<path fill-rule="evenodd" clip-rule="evenodd" d="M13.8125 2.55557L14.6724 1.25061H16.4459L16.3384 1.84872L13.8125 2.55557Z" fill="#5CB12E"/>
</g>
<defs>
<clipPath id="clip0">
<rect width="56" height="46" fill="white"/>
</clipPath>
</defs>
</svg>
