<svg width="46" height="46" viewBox="0 0 46 46" fill="none" xmlns="http://www.w3.org/2000/svg">
<rect width="46" height="46" rx="2" fill="#333333"/>
<g clip-path="url(#clip0)">
<path d="M29.2219 26.4306C28.4976 26.4306 27.8492 26.7148 27.3552 27.1629L20.5524 23.2062C20.6014 22.9869 20.6394 22.766 20.6394 22.538C20.6394 22.31 20.6007 22.0899 20.5524 21.8698L27.2784 17.9503C27.7914 18.4253 28.4698 18.7221 29.2219 18.7221C30.8076 18.7221 32.0854 17.4467 32.0854 15.861C32.0854 14.2785 30.8068 13 29.2219 13C27.6394 13 26.3608 14.2785 26.3608 15.8603C26.3608 16.0914 26.3996 16.3084 26.4479 16.5285L19.7219 20.4512C19.2081 19.9738 18.5304 19.6777 17.7775 19.6777C16.1918 19.6777 14.9141 20.9555 14.9141 22.538C14.9141 24.1205 16.1918 25.3991 17.7775 25.3991C18.5296 25.3991 19.2081 25.1022 19.7211 24.6272L26.512 28.5927C26.4653 28.7946 26.436 29.0051 26.436 29.2149C26.436 30.7508 27.6876 32 29.2211 32C30.7561 32 32.0085 30.7516 32.0085 29.2149C32.0085 27.6783 30.757 26.4306 29.2219 26.4306Z" fill="white"/>
</g>
<defs>
<clipPath id="clip0">
<rect x="14" y="13" width="19" height="19" fill="white"/>
</clipPath>
</defs>
</svg>
