<svg width="48" height="48" viewBox="0 0 48 48" fill="none" xmlns="http://www.w3.org/2000/svg">
<rect x="1" y="1" width="46" height="46" rx="2" stroke="#4D76A1"/>
<path fill-rule="evenodd" clip-rule="evenodd" d="M23.2315 30.9414H24.7259C24.7259 30.9414 25.1773 30.8927 25.4077 30.6489C25.6198 30.425 25.613 30.0046 25.613 30.0046C25.613 30.0046 25.5838 28.0363 26.5145 27.7464C27.4318 27.4609 28.6099 29.6487 29.8585 30.49C30.8027 31.1266 31.5202 30.987 31.5202 30.987L34.8588 30.9414C34.8588 30.9414 36.6053 30.8358 35.7772 29.4878C35.7093 29.3776 35.2949 28.4907 33.2948 26.6683C31.2015 24.761 31.4818 25.0695 34.0035 21.7703C35.5392 19.761 36.1532 18.5344 35.9614 18.009C35.7785 17.5086 34.649 17.6408 34.649 17.6408L30.8899 17.6638C30.8899 17.6638 30.6113 17.6265 30.4046 17.7478C30.2026 17.8667 30.0726 18.1439 30.0726 18.1439C30.0726 18.1439 29.4777 19.6987 28.6842 21.021C27.0103 23.8112 26.341 23.9585 26.0675 23.7852C25.4311 23.3814 25.59 22.1631 25.59 21.2975C25.59 18.5937 26.0077 17.4663 24.7764 17.1744C24.3678 17.0775 24.0671 17.0135 23.0221 17.0032C21.6808 16.9895 20.5456 17.0072 19.9028 17.3163C19.4751 17.5219 19.1452 17.98 19.3462 18.0063C19.5946 18.039 20.1573 18.1552 20.4556 18.554C20.8408 19.0684 20.8273 20.2238 20.8273 20.2238C20.8273 20.2238 21.0485 23.4068 20.3104 23.8022C19.8037 24.0734 19.1086 23.5197 17.6163 20.9884C16.8516 19.6917 16.2743 18.2585 16.2743 18.2585C16.2743 18.2585 16.163 17.9907 15.9645 17.8474C15.7235 17.6738 15.3868 17.6185 15.3868 17.6185L11.8147 17.6415C11.8147 17.6415 11.2785 17.6562 11.0816 17.885C10.9065 18.0886 11.0677 18.5097 11.0677 18.5097C11.0677 18.5097 13.8643 24.9323 17.0308 28.1689C19.9343 31.1363 23.2315 30.9414 23.2315 30.9414Z" fill="#4D76A1"/>
</svg>
