<svg width="48" height="48" viewBox="0 0 48 48" fill="none" xmlns="http://www.w3.org/2000/svg">
<rect x="1" y="1" width="46" height="46" rx="2" stroke="#EA4335"/>
<path d="M10.1531 23.8607C10.077 27.5531 12.6202 31.0768 16.1187 32.226C19.414 33.3331 23.4656 32.5049 25.6585 29.6828C27.2594 27.7054 27.6233 25.0692 27.45 22.6063C24.6278 22.581 21.8057 22.5894 18.9878 22.5937C18.9832 23.599 18.9878 24.6005 18.992 25.6059C20.6818 25.6526 22.3719 25.6311 24.0617 25.6652C23.6351 27.1269 22.6634 28.4873 21.1887 29.0152C18.3413 30.27 14.7082 28.6308 13.8122 25.6438C12.7308 22.7834 14.5012 19.3316 17.4243 18.4996C19.2369 17.8618 21.1041 18.5799 22.655 19.5221C23.4408 18.7868 24.1761 18.0011 24.8983 17.2069C23.1363 15.7325 20.8719 14.8285 18.5441 15.0271C13.9767 15.0814 9.97981 19.2979 10.1531 23.8607Z" fill="#EA4335"/>
<path d="M32.9429 20.0586C32.9345 20.8995 32.9257 21.7445 32.9215 22.585C32.0764 22.5934 31.2359 22.5976 30.3951 22.6018C30.3951 23.4427 30.3951 24.2789 30.3951 25.1198C31.2359 25.124 32.081 25.1282 32.9215 25.137C32.9299 25.9779 32.9299 26.8183 32.9383 27.6634C33.7749 27.6634 34.6158 27.6592 35.4563 27.6634C35.4609 26.8183 35.4647 25.9779 35.4735 25.1328C36.314 25.1286 37.159 25.1244 37.9999 25.1202C37.9999 24.2793 37.9999 23.4431 37.9999 22.6022C37.1594 22.598 36.3143 22.5938 35.4735 22.5854C35.4689 21.7445 35.4609 20.8994 35.4563 20.059C34.6158 20.0586 33.7791 20.0586 32.9429 20.0586Z" fill="#EA4335"/>
<path d="M10.1531 23.8611C9.97981 19.2983 13.9764 15.0818 18.5437 15.0271C20.8715 14.8285 23.1363 15.7325 24.8979 17.2069C24.1753 18.0015 23.44 18.7868 22.6546 19.5221C21.1038 18.5799 19.2365 17.8618 17.424 18.4995C14.5005 19.332 12.73 22.7838 13.8119 25.6438C14.7078 28.6308 18.3409 30.27 21.1883 29.0152C22.6627 28.4873 23.6347 27.1269 24.0613 25.6652C22.3715 25.6315 20.6814 25.6526 18.9917 25.6059C18.9875 24.6005 18.9832 23.599 18.9875 22.5937C21.8054 22.5894 24.6275 22.581 27.4496 22.6063C27.6229 25.0696 27.2594 27.7057 25.6581 29.6828C23.4653 32.5049 19.414 33.3331 16.1183 32.226C12.6206 31.0772 10.077 27.5535 10.1531 23.8611Z" fill="#EA4335"/>
<path d="M32.9421 20.0585C33.7788 20.0585 34.615 20.0585 35.4555 20.0585C35.4601 20.8993 35.4681 21.7444 35.4727 22.5849C36.3132 22.5933 37.1583 22.5975 37.9991 22.6017C37.9991 23.4426 37.9991 24.2788 37.9991 25.1197C37.1586 25.1239 36.3136 25.1281 35.4727 25.1323C35.4643 25.9774 35.4601 26.8178 35.4555 27.6629C34.615 27.6587 33.7738 27.6629 32.9375 27.6629C32.9295 26.8178 32.9295 25.9774 32.9207 25.1365C32.0802 25.1277 31.2352 25.1239 30.3943 25.1193C30.3943 24.2784 30.3943 23.4422 30.3943 22.6013C31.2352 22.5971 32.076 22.5929 32.9207 22.5845C32.9249 21.7444 32.9333 20.8993 32.9421 20.0585Z" fill="#EA4335"/>
</svg>
