<svg width="48" height="48" viewBox="0 0 48 48" fill="none" xmlns="http://www.w3.org/2000/svg">
<rect x="1" y="1" width="46" height="46" rx="2" stroke="#1178B3"/>
<path d="M35 26.1577V34.0393H30.4305V26.6859C30.4305 24.8395 29.7707 23.5786 28.1162 23.5786C26.8536 23.5786 26.1036 24.4275 25.7723 25.2495C25.652 25.5432 25.621 25.9512 25.621 26.3632V34.0389H21.0512C21.0512 34.0389 21.1125 21.5847 21.0512 20.2956H25.6214V22.2431C25.6122 22.2585 25.5992 22.2735 25.5911 22.2881H25.6214V22.2431C26.2287 21.3087 27.3117 19.9728 29.7397 19.9728C32.7461 19.9728 35 21.9371 35 26.1577ZM16.2707 13.6708C14.7075 13.6708 13.6848 14.6969 13.6848 16.045C13.6848 17.3645 14.6779 18.4202 16.2107 18.4202H16.2404C17.8342 18.4202 18.8252 17.3645 18.8252 16.045C18.7949 14.6969 17.8342 13.6708 16.2707 13.6708ZM13.9564 34.0393H18.5246V20.2956H13.9564V34.0393Z" fill="#1178B3"/>
</svg>
