<svg width="18" height="18" viewBox="0 0 18 18" fill="none" xmlns="http://www.w3.org/2000/svg">
<path fill-rule="evenodd" clip-rule="evenodd" d="M2.25 18H15.75C16.992 18 18 16.992 18 15.75V2.25C18 1.008 16.992 0 15.75 0H2.25C1.008 0 0 1.008 0 2.25V15.75C0 16.992 1.008 18 2.25 18ZM13.4775 7.00651C13.4775 10.053 11.1555 13.572 6.912 13.572C5.6115 13.572 4.3965 13.1895 3.3795 12.5415C3.5595 12.564 3.744 12.573 3.9285 12.573C5.0085 12.573 6.003 12.204 6.795 11.583C5.787 11.565 4.932 10.899 4.6395 9.98101C4.779 10.008 4.923 10.0215 5.0715 10.0215C5.283 10.0215 5.4855 9.99451 5.679 9.94051C4.626 9.72901 3.8295 8.79301 3.8295 7.67701V7.64551C4.14 7.81651 4.4955 7.92001 4.8735 7.93351C4.257 7.51951 3.8475 6.81301 3.8475 6.01201C3.8475 5.58901 3.96 5.19301 4.158 4.85101C5.2965 6.24601 6.9975 7.16851 8.9145 7.26301C8.8785 7.09201 8.856 6.91651 8.856 6.73651C8.856 5.46301 9.891 4.42801 11.1645 4.42801C11.826 4.42801 12.4245 4.70701 12.8475 5.15701C13.374 5.05351 13.869 4.86451 14.3145 4.59901C14.139 5.13901 13.7745 5.59351 13.2975 5.87701C13.7655 5.81851 14.211 5.69701 14.625 5.51251C14.3145 5.97601 13.923 6.38551 13.473 6.70951C13.4775 6.80851 13.4775 6.90751 13.4775 7.00651Z" fill="black"/>
</svg>
